<svg xmlns="http://www.w3.org/2000/svg" width="512" height="512" data-name="Filled stroke cutting expand" viewBox="0 0 512 512"><circle cx="256" cy="256" r="152" fill="#d63924"/><circle cx="256" cy="256" r="126" fill="#fa5d3f"/><circle cx="294.928" cy="307.426" r="24" fill="#fdbf44"/><circle cx="203.215" cy="212.574" r="24" fill="#fdbf44"/><circle cx="190.718" cy="302.928" r="16" fill="#fdbf44"/><circle cx="299.426" cy="203.215" r="16" fill="#fdbf44"/><circle cx="311.636" cy="48.364" r="24" fill="#d63924"/><circle cx="152" cy="75.867" r="24" fill="#d63924"/><path fill="#fa5d3f" d="M218.7624 89.6993a16 16 0 0 0 32 .0948c.0262-8.8365-7.14-8.0212-15.9762-8.0474S218.7886 80.8628 218.7624 89.6993zM349.2475 111.7019a16 16 0 0 0 26.6357 17.7353c4.8975-7.3553-1.5288-10.6291-8.884-15.5266S354.145 104.3466 349.2475 111.7019z"/><circle cx="436.133" cy="152" r="24" fill="#d63924"/><g><circle cx="48.364" cy="200.364" r="24" fill="#d63924"/><path fill="#fa5d3f" d="M130.5981 140.601a16 16 0 1 1-15.9178 27.76c-7.6657-4.3956-3.3767-10.1938 1.0189-17.8595S122.9324 136.2054 130.5981 140.601zM84.41 264.6057a16 16 0 0 1 2.0414 31.9348c-8.8186.5637-8.4407-6.6385-9.0044-15.4571S75.5918 265.1694 84.41 264.6057z"/><circle cx="463.636" cy="311.636" r="24" fill="#d63924"/><circle cx="360" cy="436.133" r="24" fill="#d63924"/><path fill="#fa5d3f" d="M381.4019 371.399a16 16 0 1 1 15.9178-27.76c7.6657 4.3956 3.3767 10.1938-1.0189 17.86S389.0676 375.7946 381.4019 371.399zM427.59 247.3943a16 16 0 0 1-2.0414-31.9348c8.8186-.5637 8.4407 6.6385 9.0044 15.4571S436.4082 246.8306 427.59 247.3943z"/><circle cx="200.364" cy="463.636" r="24" fill="#d63924"/><path fill="#fa5d3f" d="M293.2376 422.3007a16 16 0 0 0-32-.0948c-.0262 8.8365 7.14 8.0212 15.9762 8.0474S293.2114 431.1372 293.2376 422.3007zM162.7525 400.2981a16 16 0 1 0-26.6357-17.7353c-4.8975 7.3553 1.5288 10.6291 8.884 15.5266S157.855 407.6534 162.7525 400.2981z"/><circle cx="75.867" cy="360" r="24" fill="#d63924"/><path d="M315 358.1909A118.0155 118.0155 0 0 1 180.5469 165.2593l-10.2227-12.3076A134.01 134.01 0 1 0 352.3677 349.1284l-11.51-11.1142A117.8009 117.8009 0 0 1 315 358.1909zM290.6665 126.623A133.09 133.09 0 0 0 189 139.9526l8 13.8565A118.0075 118.0075 0 0 1 353.39 322.6113l13.2217 9.0108A134.1585 134.1585 0 0 0 372.0474 189 133.0937 133.0937 0 0 0 290.6665 126.623z"/><rect width="16" height="16" x="221.646" y="346.354" transform="rotate(-30 229.646 354.354)"/><rect width="16" height="16" x="341.282" y="249.569" transform="rotate(-30 349.283 257.57)"/><rect width="16" height="16" x="242.641" y="158.718" transform="rotate(-30 250.641 166.718)"/><rect width="16" height="16" x="154.718" y="246.431" transform="rotate(-30 162.718 254.43)"/><rect width="16" height="16" x="238.143" y="262.928" transform="rotate(-30 246.144 270.928)"/><path d="M264.0186 299.1436a32 32 0 0 0 22.6274 39.1918 32.1739 32.1739 0 0 0 8.3345 1.1041 32.0084 32.0084 0 1 0-30.9619-40.2959zm15.4545 4.1411a16.0206 16.0206 0 0 1 15.4292-11.8658 16.1016 16.1016 0 0 1 4.167.5518 16 16 0 1 1-19.5962 11.314zM175.5024 228.5742a31.7917 31.7917 0 0 0 19.4307 14.91 32.1737 32.1737 0 0 0 8.3345 1.104 32.0158 32.0158 0 1 0-27.7652-16.0137zM187.76 208.4331A16.02 16.02 0 0 1 203.19 196.5674a16.1013 16.1013 0 0 1 4.1669.5517 16 16 0 1 1-19.5961 11.314zM184.5063 326.11a24.1276 24.1276 0 0 0 6.25.8281 24.005 24.005 0 1 0-12.039-44.7949h-.0005a24 24 0 0 0 5.789 43.9668zm2.212-30.11a8 8 0 1 1-2.9287 10.9287A7.9436 7.9436 0 0 1 186.7183 296zM293.2139 226.3975a24.1264 24.1264 0 0 0 6.25.8281 24.072 24.072 0 1 0-6.25-.8281zm-1.5157-25.2525a8.0006 8.0006 0 1 1 .7994 6.07A7.9482 7.9482 0 0 1 291.6982 201.145z"/><path d="M491.3486,295.6357a32.02,32.02,0,0,0-55.583.25L412.43,289.6328a160.1556,160.1556,0,0,0,3.6139-36.642,23.832,23.832,0,0,0,10.5094,2.4369q.7683,0,1.5464-.0493h0c4.7593-.3047,8.4971-1.9765,11.1094-4.9692,4.395-5.0342,3.9238-11.6021,3.4682-17.9536-.0483-.67-.0971-1.354-.1416-2.05s-.083-1.3794-.1206-2.05c-.3569-6.3575-.7256-12.9317-5.7256-17.3658-2.9721-2.6357-6.8906-3.8173-11.6528-3.5141a23.8864,23.8864,0,0,0-14.6558,6.2456,160.3737,160.3737,0,0,0-11.987-30.6953l14.8944-8.5993a31.8051,31.8051,0,0,0,14.5619,8.4831,32.1778,32.1778,0,0,0,8.3344,1.104A31.9895,31.9895,0,1,0,405.289,160.57l-14.8942,8.5991a160.3734,160.3734,0,0,0-20.5794-25.7185,23.8173,23.8173,0,0,0,12.7266-9.58c2.6435-3.97,3.58-7.9561,2.7832-11.8482-1.34-6.5478-6.8491-10.1542-12.1777-13.642-.5621-.3682-1.1353-.7437-1.7144-1.1289s-1.147-.77-1.7031-1.147c-5.273-3.5708-10.7256-7.2612-17.2827-5.9741-3.8985.7661-7.2154,3.167-9.8584,7.1367l-.0005.0005a23.8532,23.8532,0,0,0-3.96,11.6341,160.1509,160.1509,0,0,0-33.54-15.1913l6.2528-23.3351q.1736.0019.3472.0021a31.97,31.97,0,1,0-15.8023-4.1435L289.6328,99.57a160.44,160.44,0,0,0-31.6748-3.6223,24.1332,24.1332,0,0,0,.8042-6.13c.0142-4.7691-1.4043-8.61-4.2158-11.417-4.7305-4.7207-11.3091-4.6885-17.6826-4.6587-.6714.0029-1.3594.0054-2.0542.0044s-1.3819-.0093-2.0542-.0166c-6.3672-.0684-12.9517-.1392-17.71,4.5537-2.8281,2.79-4.2695,6.6225-4.2837,11.3916v.0005a23.8535,23.8535,0,0,0,3.122,11.8973,160.3653,160.3653,0,0,0-30.8584,12.0319l-8.5992-14.8942a32.0148,32.0148,0,1,0-30.7088,8.0656,32.1778,32.1778,0,0,0,8.3344,1.104,31.5974,31.5974,0,0,0,8.5182-1.1692l8.599,14.894a160.3674,160.3674,0,0,0-25.8381,20.6972,23.8632,23.8632,0,0,0-8.7537-8.6413c-4.1372-2.3725-8.1782-3.04-12.0073-1.9863-6.4438,1.7744-9.6748,7.5122-12.7993,13.061-.33.5855-.6655,1.1827-1.0117,1.7862s-.6924,1.1963-1.0313,1.7768c-3.21,5.4991-6.53,11.1856-4.8066,17.6426,1.0249,3.8379,3.6421,6.9873,7.7793,9.3594a24.1437,24.1437,0,0,0,5.7109,2.368,160.4383,160.4383,0,0,0-12.7007,29.2432l-23.3352-6.2529A32.0078,32.0078,0,1,0,40.082,231.2739a32.1743,32.1743,0,0,0,8.3345,1.104,32.0969,32.0969,0,0,0,27.8179-16.2636L99.57,222.3672a160.1483,160.1483,0,0,0-3.6138,36.6476A23.9219,23.9219,0,0,0,83.9,256.6216h-.0005c-4.7593.3047-8.4971,1.9765-11.1094,4.9692-4.395,5.0342-3.9238,11.6021-3.4682,17.9536.0483.67.0971,1.354.1416,2.05s.083,1.3794.1206,2.05c.3569,6.3575.7256,12.9317,5.7256,17.3658a14.88,14.88,0,0,0,10.2168,3.5605q.7046,0,1.436-.0464a23.8864,23.8864,0,0,0,14.6558-6.2456,160.3737,160.3737,0,0,0,11.987,30.6953l-14.8944,8.5993A32.0061,32.0061,0,1,0,67.5845,390.91a32.1778,32.1778,0,0,0,8.3344,1.104A32.0379,32.0379,0,0,0,106.711,351.43l14.8942-8.5991a160.3734,160.3734,0,0,0,20.5794,25.7185,23.8173,23.8173,0,0,0-12.7266,9.58c-2.6435,3.97-3.58,7.9561-2.7832,11.8482,1.34,6.5478,6.8491,10.1542,12.1777,13.642.5621.3682,1.1353.7437,1.7144,1.1289s1.147.77,1.7031,1.147c4.5386,3.0733,9.2095,6.2368,14.604,6.2368a13.8331,13.8331,0,0,0,2.6787-.2627c3.8985-.7661,7.2154-3.167,9.8584-7.1367l0,0a23.8532,23.8532,0,0,0,3.96-11.6341,160.1509,160.1509,0,0,0,33.54,15.1913l-6.253,23.3357a32.0066,32.0066,0,0,0-8.577,62.9206,32.1743,32.1743,0,0,0,8.3345,1.104,32.02,32.02,0,0,0,15.6978-59.8838l6.2529-23.3353a160.4366,160.4366,0,0,0,31.6747,3.6227,24.13,24.13,0,0,0-.8041,6.1291c-.0142,4.7691,1.4043,8.61,4.2158,11.417,4.7305,4.7212,11.31,4.6895,17.6826,4.6587.6714-.0029,1.357-.0078,2.0542-.0044s1.3819.0093,2.0542.0166c.7661.0083,1.5347.0166,2.3033.0166,5.621,0,11.2207-.4419,15.4062-4.57,2.8281-2.79,4.2695-6.6225,4.2837-11.3916v0a23.8541,23.8541,0,0,0-3.1219-11.8972,160.3706,160.3706,0,0,0,30.8583-12.0321l8.5992,14.8943a32.0109,32.0109,0,0,0,14.1444,53.7538,32.1778,32.1778,0,0,0,8.3344,1.104,32.01,32.01,0,1,0-8.6223-62.8576l-8.5993-14.8946a160.3674,160.3674,0,0,0,25.8381-20.6972,23.8632,23.8632,0,0,0,8.7537,8.6413,16.924,16.924,0,0,0,8.4287,2.4707,13.4286,13.4286,0,0,0,3.5786-.4844c6.4438-1.7744,9.6748-7.5122,12.7993-13.061.33-.5855.6655-1.1827,1.0117-1.7862s.6924-1.1963,1.0313-1.7768c3.21-5.4991,6.53-11.1856,4.8066-17.6426-1.0249-3.8379-3.6421-6.9873-7.7793-9.3594a24.1372,24.1372,0,0,0-5.7109-2.3681,160.44,160.44,0,0,0,12.7007-29.2431l23.3352,6.2529a32.0368,32.0368,0,0,0,23.7292,31.2045,32.1743,32.1743,0,0,0,8.3345,1.104,32.0121,32.0121,0,0,0,27.6606-48.0137Zm-65.4267-72.1826a55.4917,55.4917,0,0,1,.519,5.7989c.04.7119.0811,1.4379.1279,2.1748s.0992,1.4628.15,2.1738a55.4946,55.4946,0,0,1,.2232,5.8179,8,8,0,0,1-1.0205-15.9654ZM86.0781,288.5469a55.4917,55.4917,0,0,1-.519-5.7989c-.04-.7119-.0811-1.4379-.1279-2.1748s-.0992-1.4628-.15-2.1738a55.4946,55.4946,0,0,1-.2232-5.8179,8,8,0,0,1,1.0205,15.9654Zm334.6-140.688a16.0207,16.0207,0,0,1,15.4292-11.8657,16.1014,16.1014,0,0,1,4.167.5517,16,16,0,1,1-19.5962,11.314Zm-64.8471-31.6084a55.5459,55.5459,0,0,1,4.9272,3.1025c.59.4,1.1924.8072,1.8071,1.2168s1.2227.8072,1.8189,1.1978a55.5712,55.5712,0,0,1,4.7632,3.3491,8,8,0,0,1-13.3164-8.8662Zm-59.65-72.0274A16.02,16.02,0,0,1,311.61,32.3574a16.0984,16.0984,0,0,1,4.167.5518,16,16,0,1,1-19.5962,11.3139ZM226.7627,89.86a55.9363,55.9363,0,0,1,5.8208-.1314c.7129.0078,1.44.0156,2.1787.0176s1.4658-.001,2.1787-.0049a55.22,55.22,0,0,1,5.82.166,7.9469,7.9469,0,0,1-2.3584,5.5127,8.0362,8.0362,0,0,1-2.0276,1.4671q-2.66.2938-5.3089.6774A8.0156,8.0156,0,0,1,226.7627,89.86Zm-78.9038,1.4614A16.0053,16.0053,0,0,1,151.9741,59.86a16.1014,16.1014,0,0,1,4.167.5517,16,16,0,0,1-8.2822,30.91Zm-23.1265,70.88a7.9371,7.9371,0,0,1-5.9531-.7138,55.6,55.6,0,0,1,2.7666-5.1226c.3594-.6157.7261-1.2441,1.0933-1.8847s.7241-1.274,1.0737-1.8946a55.492,55.492,0,0,1,3.0244-4.976,8.0053,8.0053,0,0,1,3.5241,9.3064q-1.6591,2.1046-3.2458,4.265A8.0151,8.0151,0,0,1,124.7324,162.2021ZM63.8193,204.5054a15.9938,15.9938,0,1,1-15.4809-20.148,16.0978,16.0978,0,0,1,4.167.5518,16.0008,16.0008,0,0,1,11.3139,19.5962ZM91.3218,364.1411a15.9938,15.9938,0,1,1-15.481-20.1479,16.1014,16.1014,0,0,1,4.167.5517,16.001,16.001,0,0,1,11.314,19.5962ZM156.1689,395.75a55.5459,55.5459,0,0,1-4.9272-3.1025c-.59-.4-1.1924-.8072-1.8071-1.2168s-1.2227-.8072-1.8189-1.1978a55.5712,55.5712,0,0,1-4.7632-3.3491,8,8,0,0,1,13.3164,8.8662Zm59.65,72.0274a15.9938,15.9938,0,1,1-15.4809-20.148,16.0978,16.0978,0,0,1,4.167.5518,16.0007,16.0007,0,0,1,11.3139,19.5962Zm69.418-45.6373a55.409,55.409,0,0,1-5.8208.1314c-.7129-.0078-1.44-.0156-2.1787-.0176q-.2446-.0007-.4868,0-.8577,0-1.6919.0054a55.7312,55.7312,0,0,1-5.82-.166,7.9851,7.9851,0,0,1,4.3991-6.9807q2.6537-.2934,5.296-.6764A8.0155,8.0155,0,0,1,285.2373,422.14Zm78.9038-1.4614a15.91,15.91,0,1,1-4.167-.5517A16.1014,16.1014,0,0,1,364.1411,420.6782Zm23.1265-70.88a8.0325,8.0325,0,0,1,2.1059-.2823,7.9489,7.9489,0,0,1,3.8472.9961,55.6,55.6,0,0,1-2.7666,5.1226c-.3594.6157-.7261,1.2441-1.0933,1.8847s-.7241,1.274-1.0737,1.8946a55.492,55.492,0,0,1-3.0244,4.976,8.0054,8.0054,0,0,1-3.5241-9.3065q1.6591-2.1045,3.2458-4.2649A8.0151,8.0151,0,0,1,387.2676,349.7979Zm7.8257-56.5279a144.0179,144.0179,0,0,1-21.8156,46.42,24.056,24.056,0,0,0-4.7367,5.8905q-.3246.5659-.616,1.1443a145.17,145.17,0,0,1-89.3188,51.5678q-.6442-.0364-1.2971-.0388h-.0737a24.0484,24.0484,0,0,0-7.3971,1.1569,144.1849,144.1849,0,0,1-131.116-227.1,24.056,24.056,0,0,0,4.7367-5.89q.3246-.566.616-1.1443a145.1749,145.1749,0,0,1,89.316-51.568q.6456.0364,1.3.039h.0737a24.0492,24.0492,0,0,0,7.3992-1.1575q6.7721-.65,13.6023-.6511a144.8164,144.8164,0,0,1,37.5039,4.9687A144,144,0,0,1,395.0933,293.27Zm83.9975,22.5069a15.9938,15.9938,0,1,1-15.4809-20.148,16.0984,16.0984,0,0,1,4.167.5518,16.0007,16.0007,0,0,1,11.3139,19.5962Z"/></g></svg>