<svg xmlns="http://www.w3.org/2000/svg" width="512" height="512" viewBox="0 0 512 512"><g data-name="Filled cutting stroke EX"><path fill="#fa5d3f" d="M474.2532,329.9412c-7.955-3.7321-39.1952-13.1732-60.9934-15.6186a166.9391,166.9391,0,0,0,10.0319-56.257c17.3338,2.3023,34.96,3.0963,41.0517,2.5777a24,24,0,1,0-4.0714-47.827c-6.158.5242-23.7046,4.3624-40.5673,9.649a166.8456,166.8456,0,0,0-19.9637-51.2672c15.4631-4.2791,35.799-13.496,48.4941-20.1473a32.0027,32.0027,0,1,0-22.7-40.87c-10.3689,8.922-28.7644,27.07-39.2574,41.6446a168.9237,168.9237,0,0,0-49.4343-41.6776c15.387-15.6488,34.0392-43.8315,37.8472-51.9479a24,24,0,0,0-43.4551-20.3877c-3.81,8.12-13.5684,40.5046-15.7618,62.3408a166.8927,166.8927,0,0,0-56.5313-11.0857c2.3292-17.4175,3.1339-35.19,2.6127-41.3128a24,24,0,0,0-47.8271,4.0713c.5212,6.1227,4.3185,23.5037,9.5583,40.2768a166.884,166.884,0,0,0-54.2093,20.6986c-6.0216-20.4281-19.748-48.1137-25.0831-56.2116.0036-.196.006-.3923.006-.5892a32,32,0,1,0-36.4358,31.6948c8.2092,9.76,26.3062,28.3192,41.2124,39.4026a168.9412,168.9412,0,0,0-39.5683,46.9317c-15.8641-15.1264-42.7409-32.8729-50.6353-36.5765a24,24,0,1,0-20.3875,43.4551C46.064,184.6039,76.7836,193.9,98.5493,196.454a166.8779,166.8779,0,0,0-11.2306,56.5508c-17.43-2.3332-35.2257-3.14-41.353-2.618a24,24,0,0,0,4.0714,47.827c6.1179-.5208,23.4771-4.3127,40.2383-9.5461a166.8886,166.8886,0,0,0,19.2107,51.92c-15.6929,4.8005-35.2244,13.8257-46.9341,20.0843a32.0023,32.0023,0,1,0,24.2307,40.1c9.6753-8.3082,26.479-24.7913,37.2326-38.86a168.9163,168.9163,0,0,0,49.71,42.02c-15.3867,15.6489-34.0391,43.8316-37.847,51.948a24,24,0,1,0,43.4549,20.3875c3.81-8.12,13.5684-40.5044,15.762-62.3406a166.8946,166.8946,0,0,0,56.5312,11.0857c-2.3291,17.4174-3.1338,35.19-2.6127,41.3128a24,24,0,0,0,47.8271-4.0714c-.5213-6.1226-4.3185-23.5036-9.5581-40.2768a166.8863,166.8863,0,0,0,54.2092-20.6987c4.4713,15.1693,13.1912,34.34,19.5691,46.5213a32.0028,32.0028,0,1,0,41.4077-22.0486c-8.44-9.9112-26.0867-27.9212-40.6765-38.7692A168.9251,168.9251,0,0,0,403.18,336.7717c15.8576,15.1367,42.7827,32.917,50.6856,36.6246a24,24,0,0,0,20.3877-43.4551Z"/><path fill="#fac850" d="M392.3778,256c0-4.3685-3.2127-8.3824-7.6866-11.5434A128.6221,128.6221,0,0,0,355.16,173.1705c.93-5.4011.3641-10.5139-2.7261-13.604s-8.203-3.656-13.604-2.7262a128.6216,128.6216,0,0,0-71.2864-29.5315c-3.1611-4.4738-7.1749-7.6866-11.5434-7.6866s-8.3823,3.2128-11.5434,7.6866A128.6216,128.6216,0,0,0,173.17,156.84c-5.401-.93-10.5137-.364-13.604,2.7262s-3.656,8.2029-2.7261,13.604a128.6225,128.6225,0,0,0-29.5314,71.2866c-4.4739,3.1611-7.6865,7.175-7.6865,11.5434s3.2127,8.3824,7.6866,11.5434A128.6214,128.6214,0,0,0,156.84,338.83c-.93,5.4011-.3641,10.5138,2.7261,13.604s8.203,3.656,13.604,2.7262a128.6216,128.6216,0,0,0,71.2864,29.5315c3.1611,4.4739,7.1749,7.6866,11.5434,7.6866s8.3823-3.2127,11.5434-7.6866A128.6216,128.6216,0,0,0,338.83,355.16c5.401.93,10.5137.364,13.604-2.7262s3.656-8.2029,2.7261-13.604a128.6218,128.6218,0,0,0,29.5314-71.2866C389.1652,264.3818,392.3778,260.3679,392.3778,256Z"/><path d="M256,400.3779c-5.7119,0-11.0923-2.7749-15.7231-8.0693a136.1374,136.1374,0,0,1-69.5337-28.8066c-7.0264.4687-12.7935-1.3707-16.834-5.4122s-5.8828-9.8105-5.4116-16.8335a136.13,136.13,0,0,1-28.8057-69.5327c-5.2949-4.6308-8.07-10.0107-8.07-15.7231s2.7749-11.0923,8.0693-15.7232a136.14,136.14,0,0,1,28.8062-69.5336c-.4712-7.023,1.3706-12.793,5.4121-16.834s9.8071-5.8828,16.8335-5.4117a136.1374,136.1374,0,0,1,69.5337-28.8066c4.6308-5.2944,10.0112-8.0693,15.7231-8.0693s11.0923,2.7749,15.7231,8.0693a136.1374,136.1374,0,0,1,69.5337,28.8066c7.0244-.4687,12.7935,1.37,16.834,5.4122s5.8828,9.81,5.4116,16.8335a136.13,136.13,0,0,1,28.8057,69.5327c5.2949,4.6308,8.07,10.0107,8.07,15.7231s-2.7754,11.0923-8.07,15.7236a136.4155,136.4155,0,0,1-8.88,35.2217l-14.8554-5.9433a120.5159,120.5159,0,0,0,8.15-34.1641,8,8,0,0,1,3.352-5.8281c3.1572-2.2305,4.3032-4.2183,4.3032-5.01s-1.146-2.7788-4.3032-5.01a7.9984,7.9984,0,0,1-3.3525-5.8281,120.3,120.3,0,0,0-27.6993-66.8594,8,8,0,0,1-1.7465-6.4887c.6562-3.8125.06-6.03-.5-6.59s-2.7779-1.1547-6.59-.4985a7.9933,7.9933,0,0,1-6.4887-1.7471,120.2986,120.2986,0,0,0-66.86-27.7,8,8,0,0,1-5.8281-3.352c-2.231-3.1572-4.2183-4.3032-5.01-4.3032s-2.7788,1.146-5.01,4.3032a8,8,0,0,1-5.8281,3.352,120.2986,120.2986,0,0,0-66.86,27.7,7.9981,7.9981,0,0,1-6.4887,1.7471c-3.813-.6558-6.03-.0615-6.59.4981s-1.1562,2.7783-.5,6.5908a8,8,0,0,1-1.7465,6.4887,120.3024,120.3024,0,0,0-27.7,66.86,8,8,0,0,1-3.352,5.8281c-3.1572,2.2305-4.3032,4.2183-4.3032,5.01s1.146,2.7788,4.3032,5.01a7.9984,7.9984,0,0,1,3.3525,5.8281,120.3,120.3,0,0,0,27.6993,66.8594,8,8,0,0,1,1.7465,6.4887c-.6562,3.8125-.0605,6.03.4995,6.59s2.7784,1.1552,6.59.4985a8.0083,8.0083,0,0,1,6.4887,1.7471,120.2986,120.2986,0,0,0,66.86,27.7,8,8,0,0,1,5.8281,3.352c2.231,3.1572,4.2183,4.3032,5.01,4.3032s2.7788-1.146,5.01-4.3032a8,8,0,0,1,5.8281-3.352,120.2986,120.2986,0,0,0,66.86-27.7,8,8,0,0,1,6.4887-1.7471c3.814.6577,6.03.062,6.59-.4981s1.1562-2.7783.5-6.5908a8,8,0,0,1,1.7465-6.4887,121.8751,121.8751,0,0,0,12.2911-17.6666l13.8925,7.9376a137.87,137.87,0,0,1-11.7045,17.2861c.4721,7.0234-1.37,12.7939-5.4117,16.8354s-9.811,5.878-16.8335,5.4117a136.1374,136.1374,0,0,1-69.5337,28.8066C267.0923,397.603,261.7119,400.3779,256,400.3779Z"/><circle cx="204" cy="196" r="20" fill="#fa5d3f"/><path d="M204,224a28,28,0,1,1,28-28A28.0314,28.0314,0,0,1,204,224Zm0-40a12,12,0,1,0,12,12A12.0137,12.0137,0,0,0,204,184Z"/><circle cx="292" cy="324" r="20" fill="#fa5d3f"/><path d="M292,352a28,28,0,1,1,28-28A28.0314,28.0314,0,0,1,292,352Zm0-40a12,12,0,1,0,12,12A12.0137,12.0137,0,0,0,292,312Z"/><circle cx="192" cy="304" r="16" fill="#fa5d3f"/><path d="M192,328a24,24,0,1,1,24-24A24.0269,24.0269,0,0,1,192,328Zm0-32a8,8,0,1,0,8,8A8.0092,8.0092,0,0,0,192,296Z"/><circle cx="320" cy="216" r="16" fill="#fa5d3f"/><path d="M320,240a24,24,0,1,1,24-24A24.0269,24.0269,0,0,1,320,240Zm0-32a8,8,0,1,0,8,8A8.0092,8.0092,0,0,0,320,208Z"/><rect width="16" height="16" x="264" y="152"/><rect width="16" height="16" x="152" y="232"/><rect width="16" height="16" x="304" y="272"/><rect width="16" height="16" x="256" y="224"/><rect width="16" height="16" x="256" y="224"/><rect width="16" height="16" x="216" y="336"/><rect width="16" height="16" x="216" y="336"/><path d="M157.5566,498.0728a31.9985,31.9985,0,0,1-28.9213-45.59c3.8159-8.1328,18.5268-30.437,32.5507-46.6948a175.574,175.574,0,0,1-37.0371-31.3413,334.5274,334.5274,0,0,1-30.43,30.893A39.99,39.99,0,1,1,61.207,352.3374,332.903,332.903,0,0,1,97.96,336.0405a174.5208,174.5208,0,0,1-13.6762-37.2456c-14.33,4.06-27.8643,6.9043-33.5684,7.39a32,32,0,0,1-5.4287-63.77c5.7251-.4878,19.5986.0332,34.4526,1.6221a174.3153,174.3153,0,0,1,8.0245-41.1147C66.981,199.231,42.3989,191.7212,34.7876,188.15a32,32,0,0,1,27.1836-57.94c7.6562,3.5922,29.2495,17.7724,45.3911,31.4419a175.8607,175.8607,0,0,1,28.8936-34.273,325.3267,325.3267,0,0,1-32.9146-32.3213,40.0027,40.0027,0,1,1,48.6206-40.8159c5.2158,8.6562,15.1294,28.5259,21.6812,46.8315q3.45-1.8075,6.9624-3.4541l6.789,14.4883a159.6294,159.6294,0,0,0-14.208,7.5572,8,8,0,0,1-11.7832-4.6021c-5.7016-19.3437-19.0244-46.3838-24.09-54.0718a8.0033,8.0033,0,0,1-1.3184-4.54L136,56a24,24,0,1,0-27.3364,23.7705,7.9982,7.9982,0,0,1,5.0229,2.7749c7.918,9.4136,25.5205,27.4678,39.8633,38.1323a8,8,0,0,1,.3032,12.6026,160.2455,160.2455,0,0,0-37.6933,44.708,8,8,0,0,1-12.4722,1.831c-15.62-14.894-41.689-31.9228-48.5122-35.124a16,16,0,1,0-13.5918,28.97c6.792,3.1866,36.4707,12.33,57.8979,14.8438a8,8,0,0,1,6.5274,10.8354A158.6235,158.6235,0,0,0,95.3169,253.187a8,8,0,0,1-9.06,7.7471c-17.4878-2.3413-34.521-3.0073-39.6133-2.5762a16,16,0,0,0,2.7149,31.8848c5.0752-.4322,21.7178-3.961,38.5322-9.211a8,8,0,0,1,10.2432,6.14,158.7209,158.7209,0,0,0,18.2905,49.4346,8,8,0,0,1-4.5986,11.6323c-14.6,4.4658-33.3741,13.0058-45.5034,19.4892a8.01,8.01,0,0,1-5.4.7769,24.0022,24.0022,0,1,0,18.1655,30.0791,8.0022,8.0022,0,0,1,2.4829-3.88c8.5527-7.3447,25.2217-23.4321,36.0884-37.6489a8,8,0,0,1,12.6015-.1406,160.047,160.047,0,0,0,47.354,40.0288,8,8,0,0,1,1.815,12.6c-14.9243,15.1787-32.9937,42.6709-36.31,49.7368a16,16,0,0,0,28.97,13.5918c3.3189-7.0737,12.917-38.562,15.0445-59.7427a8,8,0,0,1,10.8305-6.6675,158.644,158.644,0,0,0,53.8252,10.5547,8,8,0,0,1,7.7647,9.0591c-2.3369,17.4756-3.003,34.4917-2.57,39.5733a16,16,0,1,0,31.8847-2.7144c-.4326-5.0815-3.9663-21.7407-9.2236-38.57a8,8,0,0,1,6.1226-10.2407,158.621,158.621,0,0,0,51.6137-19.7071,8,8,0,0,1,11.7832,4.6021c4.3892,14.8916,12.9688,33.5874,18.9824,45.0722a7.9976,7.9976,0,0,1,.647,5.7544,24.003,24.003,0,1,0,31.0576-16.5322,8.0008,8.0008,0,0,1-3.4746-2.373c-7.4243-8.7183-24.6748-26.6177-39.3593-37.5362a8,8,0,0,1-.3033-12.6025,160.0392,160.0392,0,0,0,39.4258-47.8315,8.0007,8.0007,0,0,1,12.5625-1.9844c15.6143,14.9048,41.72,31.96,48.56,35.17a16,16,0,0,0,13.5913-28.97c-6.7451-3.1651-37.376-12.543-58.4868-14.9112a8,8,0,0,1-6.6275-10.6821,158.7372,158.7372,0,0,0,9.5513-53.5649,8,8,0,0,1,9.0532-7.8906c17.3843,2.3085,34.2832,2.9648,39.3194,2.5371a16,16,0,0,0-2.7139-31.8848c-5.1343.437-21.9238,4.0039-38.853,9.3115a8,8,0,0,1-10.2242-5.9975A158.6742,158.6742,0,0,0,392.8667,175.29a8,8,0,0,1,4.7407-11.8017c14.1314-3.9112,33.7451-12.6236,46.9151-19.5239a8.008,8.008,0,0,1,5.6479-.6763,24.0025,24.0025,0,1,0-17.02-30.6548,7.9951,7.9951,0,0,1-2.397,3.6113c-9.146,7.87-27.5454,25.7574-37.9824,40.2549a8,8,0,0,1-12.7251.3408,160.069,160.069,0,0,0-47.0913-39.7021,8,8,0,0,1-1.8149-12.6c14.9262-15.18,32.9941-42.6714,36.3086-49.7368A16,16,0,1,0,338.478,41.21c-3.3188,7.0737-12.917,38.562-15.0444,59.7421a8.0005,8.0005,0,0,1-10.8311,6.6675,158.6536,158.6536,0,0,0-53.8247-10.5547,8,8,0,0,1-7.7646-9.0586c2.3364-17.4746,3.0034-34.4917,2.5708-39.5742a16,16,0,0,0-31.8848,2.7149c.4321,5.08,3.9654,21.7378,9.2232,38.57A8,8,0,0,1,224.8,99.9575a159.9817,159.9817,0,0,0-22.1738,5.9541l-5.253-15.1133c5.1631-1.7944,10.4473-3.3559,15.7906-4.6665-4.07-14.3549-6.9214-27.9155-7.4073-33.6284a32,32,0,0,1,63.77-5.4282c.4863,5.7148-.0323,19.5625-1.6162,34.394a174.3,174.3,0,0,1,40.9682,7.8829c3.5342-21.1875,11.2935-46.793,15.1143-54.938a32,32,0,0,1,57.94,27.1831c-3.8149,8.1313-18.5259,30.4365-32.55,46.6953a175.5852,175.5852,0,0,1,36.6,30.8559A323.88,323.88,0,0,1,418.7,105.5249a39.99,39.99,0,1,1,30.6977,53.9307,322.2694,322.2694,0,0,1-37.8959,16.42A174.4333,174.4333,0,0,1,425.5493,212.37c14.5059-4.1333,28.2529-7.0322,34.0445-7.5249a32,32,0,0,1,5.4282,63.77c-5.6421.482-19.3145-.0239-34-1.5747a174.4328,174.4328,0,0,1-7.1631,40.7422c20.9585,3.6324,45.9927,11.2574,53.7925,14.917a32,32,0,0,1-27.1841,57.94c-7.6485-3.5889-29.1509-17.708-45.28-31.3482a175.5317,175.5317,0,0,1-30.8789,37.416A331.5072,331.5072,0,0,1,407.2,418.9912a39.9878,39.9878,0,1,1-54.5713,29.917,329.9985,329.9985,0,0,1-15.6953-35.9028,174.2923,174.2923,0,0,1-39.5283,14.9458c4.0683,14.3506,6.92,27.9111,7.4067,33.625a32,32,0,0,1-63.77,5.4282c-.4868-5.7129.0312-19.5591,1.6157-34.3931A174.3632,174.3632,0,0,1,201.69,424.728c-3.5337,21.1885-11.2929,46.793-15.1142,54.9385A32.0462,32.0462,0,0,1,157.5566,498.0728Z"/></g></svg>