<svg xmlns="http://www.w3.org/2000/svg" xmlns:xlink="http://www.w3.org/1999/xlink" id="Capa_1" x="0px" y="0px" viewBox="0 0 512 512" style="enable-background:new 0 0 512 512;" xml:space="preserve" width="512" height="512">
<g>
	<path style="fill:#B5FCFF;" d="M368,504.5H144c-16.569,0-30-13.431-30-30v-437c0-16.569,13.431-30,30-30h224   c16.569,0,30,13.431,30,30v437C398,491.069,384.569,504.5,368,504.5z"></path>
	<path style="fill:#71F6FC;" d="M368,7.5h-30c16.569,0,30,13.431,30,30v437c0,16.569-13.431,30-30,30h30c16.569,0,30-13.431,30-30   v-437C398,20.931,384.569,7.5,368,7.5z"></path>
	<path style="fill:#685C79;" d="M314,45.5H198c-7.732,0-14-6.268-14-14v-24h144v24C328,39.232,321.732,45.5,314,45.5z"></path>
	<path style="fill:#594F69;" d="M298,7.5v24c0,7.732-6.268,14-14,14h30c7.732,0,14-6.268,14-14v-24H298z"></path>
	<rect x="114" y="428.5" style="fill:#3BE3EB;" width="284" height="30"></rect>
	<rect x="368" y="428.5" style="fill:#2BC3D4;" width="30" height="30"></rect>
	<path style="fill:#685C79;" d="M368,504.5H144c-16.569,0-30-13.431-30-30v-16h284v16C398,491.069,384.569,504.5,368,504.5z"></path>
	<path style="fill:#594F69;" d="M368,458.5v16c0,16.569-13.431,30-30,30h30c16.569,0,30-13.431,30-30v-16H368z"></path>
	<rect x="166" y="122" style="fill:#D5DFE8;" width="180" height="260"></rect>
	<rect x="316" y="122" style="fill:#CAD2DB;" width="30" height="260"></rect>
	<g>
		<rect x="196" y="161" style="fill:#FF2C5C;" width="40" height="40"></rect>
		<rect x="276" y="161" style="fill:#FFD659;" width="40" height="40"></rect>
	</g>
	<g>
		<rect x="196" y="239" style="fill:#FFD659;" width="40" height="40"></rect>
		<rect x="276" y="239" style="fill:#FFD659;" width="40" height="40"></rect>
	</g>
	<g>
		<rect x="196" y="316" style="fill:#FFD659;" width="40" height="40"></rect>
		<rect x="276" y="316" style="fill:#FF2C5C;" width="40" height="40"></rect>
	</g>
	<circle style="fill:#FF2C5C;" cx="392.5" cy="106" r="62.5"></circle>
	<circle style="fill:#FFBD54;" cx="87" cy="316" r="36"></circle>
	<path style="fill:#FF943D;" d="M87,280c-5.355,0-10.432,1.178-15,3.275c12.391,5.689,21,18.198,21,32.725s-8.609,27.036-21,32.725   c4.568,2.097,9.645,3.275,15,3.275c19.882,0,36-16.118,36-36S106.882,280,87,280z"></path>
	<circle style="fill:#FFBD54;" cx="425" cy="316" r="36"></circle>
	<path style="fill:#FF943D;" d="M425,280c-5.355,0-10.432,1.178-15,3.275c12.391,5.689,21,18.198,21,32.725s-8.609,27.036-21,32.725   c4.568,2.097,9.645,3.275,15,3.275c19.882,0,36-16.118,36-36S444.882,280,425,280z"></path>
	<path style="fill:#FFD659;" d="M187.212,71.212l7.858,15.785c0.847,1.701,2.483,2.88,4.377,3.152l17.57,2.531   c4.768,0.687,6.671,6.495,3.221,9.829l-12.714,12.287c-1.37,1.324-1.995,3.231-1.672,5.101l3.001,17.349   c0.814,4.708-4.169,8.298-8.434,6.075l-15.715-8.191c-1.693-0.883-3.716-0.883-5.41,0l-15.715,8.191   c-4.264,2.223-9.248-1.367-8.434-6.075l3.001-17.349c0.323-1.869-0.302-3.777-1.672-5.101l-12.714-12.287   c-3.45-3.334-1.546-9.143,3.221-9.829l17.57-2.531c1.893-0.273,3.53-1.452,4.376-3.152l7.858-15.785   C178.92,66.929,185.08,66.929,187.212,71.212z"></path>
	<path style="fill:#FFBD54;" d="M207.52,114.798c-1.37,1.32-1.99,3.23-1.67,5.1l3,17.349c0.82,4.71-4.17,8.3-8.43,6.08l-2.27-1.19   c-1.11-30.709-15.5-42.178-22.48-68.677l1.12-2.25c2.13-4.28,8.29-4.28,10.42,0l7.86,15.789c0.85,1.7,2.48,2.88,4.38,3.15   l17.57,2.53c4.76,0.69,6.67,6.5,3.22,9.83L207.52,114.798z"></path>
	<g>
		<path d="M236.333,489h40c4.142,0,7.5-3.358,7.5-7.5s-3.358-7.5-7.5-7.5h-40c-4.142,0-7.5,3.358-7.5,7.5S232.191,489,236.333,489z"></path>
		<path d="M472,374.5h-39.167v-15.661c20.422-3.566,36-21.412,36-42.839c0-23.986-19.514-43.5-43.5-43.5    c-7.009,0-13.63,1.676-19.5,4.633V276.5c0-4.142-3.358-7.5-7.5-7.5s-7.5,3.358-7.5,7.5v13.049c-5.638,7.336-9,16.506-9,26.451    s3.362,19.116,9,26.451V374.5h-37V164.1c10.634,7.161,23.335,11.463,37,11.85v68.301c0,4.142,3.358,7.5,7.5,7.5s7.5-3.358,7.5-7.5    v-69.48c32.405-6.113,57-34.615,57-68.77c0-34.157-24.598-62.661-57.007-68.772C405.679,16.676,388.92,0,368.333,0h-224    c-20.678,0-37.5,16.822-37.5,37.5v90.042c0,4.142,3.358,7.5,7.5,7.5s7.5-3.358,7.5-7.5V37.5c0-12.407,10.093-22.5,22.5-22.5h32.5    v16.5c0,11.855,9.645,21.5,21.5,21.5h116c11.855,0,21.5-9.645,21.5-21.5V15h32.5c11.92,0,21.699,9.318,22.448,21.052    C353.131,37.144,322.833,68.09,322.833,106c0,2.879,0.195,5.711,0.535,8.5H218.957l6.826-6.596    c3.663-3.54,4.967-8.745,3.403-13.584c-1.57-4.859-5.696-8.331-10.767-9.062l-16.702-2.406l-7.458-14.98    c-2.263-4.546-6.833-7.371-11.926-7.371c0,0,0,0-0.001,0c-5.093,0-9.663,2.824-11.927,7.37l-7.457,14.981l-16.703,2.406    c-5.07,0.73-9.196,4.203-10.767,9.062c-1.564,4.839-0.26,10.044,3.403,13.584l12.047,11.642l-2.841,16.423    c-0.864,4.992,1.147,9.954,5.247,12.948c1.673,1.222,3.553,2.007,5.498,2.361V374.5h-37v-32.049c5.638-7.336,9-16.506,9-26.451    s-3.362-19.116-9-26.451V159.542c0-4.142-3.358-7.5-7.5-7.5s-7.5,3.358-7.5,7.5v117.592c-5.87-2.957-12.491-4.633-19.5-4.633    c-23.986,0-43.5,19.514-43.5,43.5c0,21.427,15.578,39.273,36,42.839V374.5H40c-4.142,0-7.5,3.358-7.5,7.5s3.358,7.5,7.5,7.5    h66.833v85c0,20.678,16.822,37.5,37.5,37.5h224c20.678,0,37.5-16.822,37.5-37.5v-85H472c4.142,0,7.5-3.358,7.5-7.5    S476.142,374.5,472,374.5z M320.833,31.5c0,3.584-2.916,6.5-6.5,6.5h-116c-3.584,0-6.5-2.916-6.5-6.5V15h129V31.5z M453.833,316    c0,15.715-12.785,28.5-28.5,28.5s-28.5-12.785-28.5-28.5s12.785-28.5,28.5-28.5S453.833,300.285,453.833,316z M392.833,51    c30.327,0,55,24.673,55,55s-24.673,55-55,55s-55-24.673-55-55S362.506,51,392.833,51z M180.832,74.555L180.832,74.555    C180.832,74.555,180.831,74.555,180.832,74.555C180.831,74.554,180.831,74.555,180.832,74.555z M151.877,99.601l14.078-2.028    c4.332-0.623,8.078-3.328,10.022-7.233l6.355-12.768l6.356,12.768c1.944,3.906,5.691,6.611,10.021,7.234l14.079,2.028    l-10.144,9.803c-3.158,3.053-4.597,7.454-3.849,11.772l0.37,2.14c0.014,0.081,0.025,0.162,0.042,0.242l1.996,11.541l-12.699-6.619    c-3.864-2.015-8.479-2.014-12.343,0l-12.7,6.619l2.409-13.921c0.748-4.319-0.691-8.72-3.85-11.774L151.877,99.601z     M173.833,146.609l8.5-4.43l14.953,7.794c4.535,2.363,9.916,1.958,14.043-1.056c4.1-2.995,6.111-7.957,5.247-12.948l-1.119-6.469    h111.445c2.755,7.707,6.816,14.799,11.93,20.995V374.5h-165V146.609z M58.833,316c0-15.715,12.785-28.5,28.5-28.5    s28.5,12.785,28.5,28.5s-12.785,28.5-28.5,28.5S58.833,331.715,58.833,316z M94.833,374.5v-15.661    c4.242-0.741,8.273-2.095,12-3.973V374.5H94.833z M390.833,451H192.458c-4.142,0-7.5,3.358-7.5,7.5s3.358,7.5,7.5,7.5h198.375v8.5    c0,12.407-10.093,22.5-22.5,22.5h-224c-12.407,0-22.5-10.093-22.5-22.5V466h38.5c4.142,0,7.5-3.358,7.5-7.5s-3.358-7.5-7.5-7.5    h-38.5v-61.5h269V451z M405.833,354.867c3.727,1.878,7.758,3.232,12,3.973V374.5h-12V354.867z"></path>
		<path d="M236.333,153.5h-40c-4.142,0-7.5,3.358-7.5,7.5v40c0,4.142,3.358,7.5,7.5,7.5h40c4.142,0,7.5-3.358,7.5-7.5v-40    C243.833,156.858,240.476,153.5,236.333,153.5z M228.833,193.5h-25v-25h25V193.5z"></path>
		<path d="M316.333,153.5h-40c-4.142,0-7.5,3.358-7.5,7.5v40c0,4.142,3.358,7.5,7.5,7.5h40c4.142,0,7.5-3.358,7.5-7.5v-40    C323.833,156.858,320.476,153.5,316.333,153.5z M308.833,193.5h-25v-25h25V193.5z"></path>
		<path d="M236.333,231.5h-40c-4.142,0-7.5,3.358-7.5,7.5v40c0,4.142,3.358,7.5,7.5,7.5h40c4.142,0,7.5-3.358,7.5-7.5v-40    C243.833,234.858,240.476,231.5,236.333,231.5z M228.833,271.5h-25v-25h25V271.5z"></path>
		<path d="M316.333,231.5h-40c-4.142,0-7.5,3.358-7.5,7.5v40c0,4.142,3.358,7.5,7.5,7.5h40c4.142,0,7.5-3.358,7.5-7.5v-40    C323.833,234.858,320.476,231.5,316.333,231.5z M308.833,271.5h-25v-25h25V271.5z"></path>
		<path d="M236.333,308.5h-40c-4.142,0-7.5,3.358-7.5,7.5v40c0,4.142,3.358,7.5,7.5,7.5h40c4.142,0,7.5-3.358,7.5-7.5v-40    C243.833,311.858,240.476,308.5,236.333,308.5z M228.833,348.5h-25v-25h25V348.5z"></path>
		<path d="M316.333,308.5h-40c-4.142,0-7.5,3.358-7.5,7.5v40c0,4.142,3.358,7.5,7.5,7.5h40c4.142,0,7.5-3.358,7.5-7.5v-40    C323.833,311.858,320.476,308.5,316.333,308.5z M308.833,348.5h-25v-25h25V348.5z"></path>
		<path d="M387.754,135.5c2.027,0,4.035-0.82,5.5-2.397l35.896-38.667c2.818-3.036,2.642-7.781-0.394-10.599    c-3.036-2.819-7.782-2.642-10.599,0.394l-31.571,34.007l-24.466-16.162c-3.455-2.283-8.108-1.333-10.392,2.124    c-2.283,3.456-1.332,8.108,2.124,10.392l29.771,19.667C384.888,135.093,386.326,135.5,387.754,135.5z"></path>
	</g>
</g>















</svg>