<svg xmlns="http://www.w3.org/2000/svg" height="512pt" viewBox="0 0 512 511" width="512pt"><path d="m498.410156 120.691406c-7.792968-5.433594-18.589844-4.6875-25.539062 2.273438l-28.269532 28.265625 23.277344 23.277343 28.269532-28.277343c6.953124-6.953125 7.695312-17.746094 2.261718-25.539063zm0 0" fill="#feb756"></path><path d="m467.878906 174.507812-28.726562 27.820313-41.953125-41.964844-.449219-.457031 28.71875-27.808594zm0 0" fill="#4dbbeb"></path><path d="m341.859375 482.304688v-371.847657c0-11.046875-11.945313-19.992187-22.988281-19.992187h-207.917969c-11.042969 0-19.988281 8.945312-19.988281 19.992187v371.847657c0 11.046874 8.945312 19.992187 19.988281 19.992187h207.917969c11.042968 0 22.988281-8.945313 22.988281-19.992187zm0 0" fill="#4dbbeb"></path><path d="m302.878906 438.621094c0 8.453125-9.140625 15.296875-17.589844 15.296875h-221.015624c-8.449219 0-15.292969-6.84375-15.292969-15.296875v-284.484375c0-8.449219 6.84375-15.292969 15.292969-15.292969h221.011718c8.453125 0 17.589844 6.84375 17.589844 15.292969v284.484375zm0 0" fill="#fff"></path><path d="m397.199219 160.363281 41.953125 41.964844-99.28125 96.140625-61.765625 59.804688-21.199219-21.199219-21.210938-21.203125 63.824219-61.8125 42.660157-41.316406 54.570312-52.835938zm0 0" fill="#fff"></path><path d="m439.152344 202.328125-22.773438-22.777344-54.5625 52.828125-42.660156 41.316406-63.820312 61.808594 1.570312 1.570313 19.628906 19.625.007813.011719 1.5625 1.5625 61.765625-59.804688zm0 0" fill="#fd3c65"></path><path d="m278.105469 358.273438-63.613281 21.210937 21.203124-63.613281 21.210938 21.203125zm0 0" fill="#feb756"></path><path d="m255.894531 90.464844v42.980468h-159.933593v-42.980468c0-11.046875 8.945312-19.992188 19.992187-19.992188h25.550781c-3.441406-5.910156-5.558594-12.675781-5.558594-19.992187 0-22.050781 17.933594-39.984375 39.984376-39.984375 22.050781 0 39.984374 17.933594 39.984374 39.984375 0 7.316406-2.121093 14.082031-5.558593 19.992187h25.546875c11.046875 0 19.992187 8.945313 19.992187 19.992188zm0 0" fill="#fff"></path><path d="m235.902344 70.472656h-25.546875c3.4375-5.910156 5.558593-12.675781 5.558593-19.992187 0-11.160157-4.601562-21.261719-11.996093-28.519531-7.398438 7.257812-11.996094 17.359374-11.996094 28.519531 0 7.316406 2.121094 14.082031 5.558594 19.992187h-25.550781c-11.046876 0-19.992188 8.945313-19.992188 19.992188v42.980468h103.957031v-42.980468c0-11.046875-8.945312-19.992188-19.992187-19.992188zm0 0" fill="#feb756"></path><path d="m175.929688 60.476562c5.515624 0 9.996093-4.480468 9.996093-9.996093 0-5.519531-4.480469-9.996094-9.996093-9.996094-5.519532 0-9.996094 4.476563-9.996094 9.996094 0 5.515625 4.476562 9.996093 9.996094 9.996093zm0 0"></path><path d="m52.976562 246.398438c5.519532 0 9.996094-4.476563 9.996094-9.996094 0-5.515625-4.476562-9.992188-9.996094-9.992188-5.515624 0-9.992187 4.476563-9.992187 9.992188 0 5.519531 4.476563 9.996094 9.992187 9.996094zm0 0"></path><path d="m108.882812 223.480469c1.953126 1.953125 4.511719 2.929687 7.070313 2.929687s5.117187-.976562 7.066406-2.929687l39.984375-39.984375c3.902344-3.902344 3.902344-10.230469 0-14.136719-3.902344-3.902344-10.230468-3.902344-14.136718 0l-32.914063 32.917969-12.925781-12.925782c-3.902344-3.902343-10.230469-3.902343-14.136719 0-3.902344 3.902344-3.902344 10.234376 0 14.136719zm0 0"></path><path d="m108.882812 323.441406c1.953126 1.949219 4.511719 2.925782 7.070313 2.925782s5.117187-.976563 7.066406-2.925782l39.984375-39.984375c3.902344-3.90625 3.902344-10.234375 0-14.136719-3.902344-3.90625-10.230468-3.90625-14.136718 0l-32.914063 32.914063-12.925781-12.921875c-3.902344-3.902344-10.230469-3.902344-14.136719 0-3.902344 3.902344-3.902344 10.230469 0 14.136719zm0 0"></path><path d="m108.882812 423.398438c1.953126 1.953124 4.511719 2.929687 7.070313 2.929687s5.117187-.976563 7.066406-2.929687l39.984375-39.984376c3.902344-3.902343 3.902344-10.230468 0-14.136718-3.902344-3.902344-10.230468-3.902344-14.136718 0l-32.914063 32.917968-12.925781-12.925781c-3.902344-3.902343-10.230469-3.902343-14.136719 0-3.902344 3.90625-3.902344 10.234375 0 14.140625zm0 0"></path><path d="m195.921875 206.417969h59.972656c5.523438 0 9.996094-4.476563 9.996094-9.996094 0-5.523437-4.472656-9.996094-9.996094-9.996094h-59.972656c-5.523437 0-9.996094 4.472657-9.996094 9.996094 0 5.519531 4.472657 9.996094 9.996094 9.996094zm0 0"></path><path d="m512 132.097656c0-8.011718-3.117188-15.539062-8.785156-21.203125l-14.128906-14.128906c-5.664063-5.671875-13.195313-8.796875-21.210938-8.796875s-15.546875 3.125-21.207031 8.792969l-28.214844 28.214843-66.597656 64.488282v-79.007813c0-17.675781-17.382813-29.988281-32.984375-29.988281h-54.699219c-4.125-11.636719-15.234375-19.992188-28.269531-19.992188h-11.039063c.695313-3.277343 1.046875-6.617187 1.046875-9.996093 0-27.558594-22.421875-49.980469-49.980468-49.980469-27.558594 0-49.980469 22.421875-49.980469 49.980469 0 3.378906.347656 6.71875 1.046875 9.996093h-11.042969c-13.03125 0-24.140625 8.355469-28.269531 19.992188h-57.695313c-16.535156 0-29.988281 13.453125-29.988281 29.988281v371.847657c0 16.535156 13.453125 29.988281 29.988281 29.988281h288.882813c15.601562 0 32.984375-12.316407 32.984375-29.988281v-181.53125l91.75-88.84375c1.109375-.488282 2.15625-1.175782 3.0625-2.082032.828125-.828125 1.46875-1.769531 1.945312-2.769531l19.152344-18.546875 7.179687 7.179688c1.886719 1.886718 2.925782 4.398437 2.925782 7.066406 0 2.667968-1.039063 5.179687-2.925782 7.066406l-56.546874 56.546875c-3.902344 3.902344-3.902344 10.230469 0 14.136719 1.953124 1.949218 4.507812 2.925781 7.066406 2.925781s5.117187-.976563 7.070312-2.925781l56.546875-56.546875c5.664063-5.664063 8.78125-13.195313 8.78125-21.203125 0-8.007813-3.121093-15.539063-8.78125-21.203125l-7.066406-7.066407 21.199219-21.207031c5.664062-5.664062 8.785156-13.195312 8.785156-21.203125zm-72.734375 56.207032-28.269531-28.277344 14.359375-13.90625 28.273437 28.273437zm-161.046875 155.945312-28.273438-28.265625 146.6875-142.050781 28.269532 28.277344zm-38.152344-9.875 19.539063 19.53125-29.308594 9.773438zm91.796875-223.917969v98.367188l-22.988281 22.265625v-97.644532c0-5.519531-4.476562-9.996093-9.996094-9.996093h-32.988281v-22.988281h52.980469c6.191406 0 12.992187 5.230468 12.992187 9.996093zm-215.910156-29.988281h25.550781c3.574219 0 6.878906-1.914062 8.664063-5.015625 1.785156-3.097656 1.773437-6.917969-.027344-10.007813-2.785156-4.792968-4.199219-9.824218-4.199219-14.964843 0-16.535157 13.453125-29.988281 29.988282-29.988281 16.535156 0 29.988281 13.453124 29.988281 29.988281 0 5.140625-1.414063 10.171875-4.203125 14.964843-1.800782 3.089844-1.808594 6.910157-.027344 10.007813 1.785156 3.101563 5.089844 5.015625 8.667969 5.015625h25.546875c5.511718 0 9.996094 4.484375 9.996094 9.996094v32.984375h-139.941407v-32.984375c0-5.511719 4.484375-9.996094 9.996094-9.996094zm215.910156 401.835938c0 4.765624-6.800781 9.996093-12.992187 9.996093h-288.882813c-5.511719 0-9.996093-4.484375-9.996093-9.996093v-371.847657c0-5.511719 4.484374-9.996093 9.996093-9.996093h55.976563v22.988281h-32.988282c-5.519531 0-9.992187 4.476562-9.992187 9.996093v62.976563c0 5.519531 4.472656 9.996094 9.992187 9.996094 5.523438 0 9.996094-4.476563 9.996094-9.996094v-52.980469h225.910156v107.007813l-37.105468 35.933593h-55.855469c-5.523437 0-9.996094 4.476563-9.996094 9.996094 0 5.523438 4.472657 9.996094 9.996094 9.996094h35.210937l-2.394531 2.316406c-.203125.199219-.390625.410156-.578125.621094-.027344.035156-.0625.066406-.09375.101562-.257812.304688-.488281.621094-.703125.945313-.046875.066406-.082031.132813-.125.203125-.171875.269531-.328125.546875-.46875.828125-.046875.085937-.085937.175781-.128906.261719-.140625.304687-.269531.617187-.378906.933594-.011719.042968-.035157.082031-.050781.125l-.046876.144531c-.003906.007812-.007812.019531-.007812.027343l-20.398438 61.203126-12.464843 12.464843c-3.90625 3.902344-3.90625 10.234375 0 14.136719 1.949219 1.953125 4.507812 2.929688 7.066406 2.929688s5.117187-.980469 7.066406-2.929688l12.46875-12.464844 61.375-20.46875c.050781-.015625.09375-.039062.140625-.054687.3125-.109375.617188-.234375.921875-.375.0625-.027344.125-.054688.1875-.085938.355469-.171875.703125-.367187 1.039063-.585937.027344-.015625.050781-.039063.078125-.054688.285156-.191406.5625-.402344.832031-.625.097656-.078125.1875-.160156.28125-.242187.101562-.09375.210938-.179688.3125-.277344l3.820312-3.699219v87.5625h-225.910156v-172.929687c0-5.523438-4.472656-9.996094-9.996094-9.996094-5.519531 0-9.992187 4.472656-9.992187 9.996094v182.925781c0 5.519531 4.472656 9.996094 9.992187 9.996094h245.902344c5.519532 0 9.996094-4.476563 9.996094-9.996094v-116.917969l22.988281-22.261719zm157.214844-343.140626-21.199219 21.207032-28.277344-28.277344 21.207032-21.203125c1.886718-1.890625 4.394531-2.929687 7.066406-2.929687 2.667969 0 5.179688 1.039062 7.070312 2.933593l14.132813 14.136719c1.890625 1.886719 2.929687 4.394531 2.929687 7.066406 0 2.667969-1.039062 5.175782-2.929687 7.066406zm0 0"></path></svg>