<svg xmlns="http://www.w3.org/2000/svg" data-name="Layer 1" viewBox="0 0 64 64"><path fill="#ffcc40" d="M3,15H59a2,2,0,0,1,2,2V55a2,2,0,0,1-2,2H5a2,2,0,0,1-2-2V15A0,0,0,0,1,3,15Z"/><path fill="#ed9b28" d="M3,15H59a2,2,0,0,1,2,2v1a0,0,0,0,1,0,0H3a0,0,0,0,1,0,0V15A0,0,0,0,1,3,15Z"/><path fill="gray" d="M23,7H5A2,2,0,0,0,3,9v6H28Z"/><rect width="34" height="6" x="15" y="51" fill="#94e6ff"/><path fill="#0a1827" d="M59,14H28.55l-4.7-7.53A1,1,0,0,0,23,6H5A3,3,0,0,0,2,9V55a3,3,0,0,0,3,3H59a3,3,0,0,0,3-3V17A3,3,0,0,0,59,14ZM4,9A1,1,0,0,1,5,8H22.45l3.75,6H4ZM16,56V52H48v4Zm44-1a1,1,0,0,1-1,1H50V51a1,1,0,0,0-1-1H15a1,1,0,0,0-1,1v5H5a1,1,0,0,1-1-1V16H59a1,1,0,0,1,1,1Z"/><path fill="#0a1827" d="M42 33H22a1 1 0 0 0 0 2H42a1 1 0 0 0 0-2zM9.91 10H9a1 1 0 0 0 0 2h.91a1 1 0 0 0 0-2zM14.45 10h-.9a1 1 0 0 0 0 2h.9a1 1 0 0 0 0-2zM19 10h-.91a1 1 0 0 0 0 2H19a1 1 0 0 0 0-2z"/></svg>