<svg xmlns="http://www.w3.org/2000/svg" width="60" height="60" viewBox="0 0 60 60"><g id="pharmacy-drug-drug_store-dispensary-store" data-name="pharmacy-drug-drug store-dispensary-store" transform="translate(-2 -2)"><path id="Path_2102" data-name="Path 2102" d="M7,26H57V57H7Z" fill="#fee9ab"></path><path id="Path_2103" data-name="Path 2103" d="M53,26h4V57H53Z" fill="#ffd422"></path><path id="Path_2104" data-name="Path 2104" d="M61,59a2.015,2.015,0,0,1-2,2H5a2,2,0,0,1,0-4H59A2.006,2.006,0,0,1,61,59Z" fill="#898890"></path><path id="Path_2105" data-name="Path 2105" d="M61,59a2.015,2.015,0,0,1-2,2H55a2,2,0,1,0,0-4h4A2.006,2.006,0,0,1,61,59Z" fill="#57565c"></path><path id="Path_2106" data-name="Path 2106" d="M58.25,14.72,60,27a4,4,0,0,1-8,0V13h4.27a2.01,2.01,0,0,1,1.98,1.72Z" fill="#9f5de2"></path><path id="Path_2107" data-name="Path 2107" d="M60,27a3.994,3.994,0,0,1-6,3.46,4.225,4.225,0,0,0,.83-.63A4.025,4.025,0,0,0,56,27L54.25,14.72A2.01,2.01,0,0,0,52.27,13h4a2.01,2.01,0,0,1,1.98,1.72Z" fill="#7b4397"></path><rect id="Rectangle_325" data-name="Rectangle 325" width="20" height="18" rx="2" transform="translate(32 35)" fill="#46f8ff"></rect><path id="Path_2108" data-name="Path 2108" d="M52,37V51a2.006,2.006,0,0,1-2,2H46a2.006,2.006,0,0,0,2-2V37a2.006,2.006,0,0,0-2-2h4A2.006,2.006,0,0,1,52,37Z" fill="#00d7df"></path><rect id="Rectangle_326" data-name="Rectangle 326" width="32" height="22" rx="2" transform="translate(16 3)" fill="#ebe5dd"></rect><path id="Path_2109" data-name="Path 2109" d="M48,5V23a2.006,2.006,0,0,1-2,2H42a2.006,2.006,0,0,0,2-2V5a2.006,2.006,0,0,0-2-2h4a2.006,2.006,0,0,1,2,2Z" fill="#c0ab91"></path><path id="Path_2110" data-name="Path 2110" d="M26,42V57H12V42a7,7,0,0,1,14,0Z" fill="#a78966"></path><path id="Path_2111" data-name="Path 2111" d="M26,42V57H22V42a7,7,0,0,0-5-6.71A7,7,0,0,1,26,42Z" fill="#806749"></path><path id="Path_2112" data-name="Path 2112" d="M52,13V27a4,4,0,0,1-8,0V25h2a2.006,2.006,0,0,0,2-2V13Z" fill="#9f5de2"></path><path id="Path_2113" data-name="Path 2113" d="M44,25v2a4,4,0,0,1-8,0V25Z" fill="#9f5de2"></path><path id="Path_2114" data-name="Path 2114" d="M44,14v4a3,3,0,0,1-6,0V14Z" fill="#e0e0e2"></path><path id="Path_2115" data-name="Path 2115" d="M44,10v4H38V10a3,3,0,0,1,6,0Z" fill="#9f5de2"></path><path id="Path_2116" data-name="Path 2116" d="M36,25v2a4,4,0,0,1-8,0V25Z" fill="#9f5de2"></path><path id="Path_2117" data-name="Path 2117" d="M34,11V21H22V11H34Z" fill="#bdfdff"></path><path id="Path_2118" data-name="Path 2118" d="M24,7h8v4H24Z" fill="#57a4ff"></path><g id="Group_590" data-name="Group 590"><path id="Path_2119" data-name="Path 2119" d="M28,25v2a4,4,0,0,1-8,0V25Z" fill="#9f5de2"></path><path id="Path_2120" data-name="Path 2120" d="M20,25v2a4,4,0,0,1-8,0V13h4V23a2.006,2.006,0,0,0,2,2Z" fill="#9f5de2"></path><path id="Path_2121" data-name="Path 2121" d="M12,13V27a4,4,0,0,1-8,0L5.75,14.72A2.01,2.01,0,0,1,7.73,13Z" fill="#9f5de2"></path></g><path id="Path_2122" data-name="Path 2122" d="M34,54H50a3,3,0,0,0,3-3V37a3,3,0,0,0-3-3H34a3,3,0,0,0-3,3V51A3,3,0,0,0,34,54ZM33,37a1,1,0,0,1,1-1H50a1,1,0,0,1,1,1V51a1,1,0,0,1-1,1H34a1,1,0,0,1-1-1Z"></path><path id="Path_2123" data-name="Path 2123" d="M47,43h2V39a1,1,0,0,0-1-1H44v2h3Z"></path><path id="Path_2124" data-name="Path 2124" d="M22,47h2v2H22Z"></path><path id="Path_2125" data-name="Path 2125" d="M59,56H57V31.9A5.017,5.017,0,0,0,61,27a.66.66,0,0,0-.01-.14L59.24,14.58A3.02,3.02,0,0,0,56.27,12H49V5a3.009,3.009,0,0,0-3-3H18a3.009,3.009,0,0,0-3,3v7H7.73a3.02,3.02,0,0,0-2.97,2.58L3.01,26.86A.66.66,0,0,0,3,27a5.017,5.017,0,0,0,4,4.9V56H5a3,3,0,0,0,0,6H59a3,3,0,1,0,0-6ZM53,14h3.27a.991.991,0,0,1,.98.86L59,27.07A3,3,0,0,1,53,27Zm-4,9V14h2V27a3,3,0,0,1-6,0V26h1a3.009,3.009,0,0,0,3-3ZM17,5a1,1,0,0,1,1-1H46a1,1,0,0,1,1,1V23a1,1,0,0,1-1,1H18a1,1,0,0,1-1-1ZM43,26v1a3,3,0,0,1-6,0V26Zm-8,0v1a3,3,0,0,1-6,0V26Zm-8,0v1a3,3,0,0,1-6,0V26ZM13,14h2v9a3.009,3.009,0,0,0,3,3h1v1a3,3,0,0,1-6,0ZM12,30a5,5,0,0,0,8,0,5,5,0,0,0,8,0,5,5,0,0,0,8,0,5,5,0,0,0,8,0,5,5,0,0,0,8,0,4.994,4.994,0,0,0,3,1.89V56H27V42a8,8,0,0,0-16,0V56H9V31.89A4.994,4.994,0,0,0,12,30ZM25,42V56H13V42a6,6,0,0,1,12,0ZM5,27.07,6.75,14.86A.991.991,0,0,1,7.73,14H11V27a3,3,0,0,1-6,.07ZM59,60H5a1,1,0,0,1,0-2H59a1,1,0,0,1,0,2Z"></path><path id="Path_2126" data-name="Path 2126" d="M35,8V6H21V8h2v2H22a1,1,0,0,0-1,1V21a1,1,0,0,0,1,1H34a1,1,0,0,0,1-1V11a1,1,0,0,0-1-1H33V8ZM25,8h6v2H25Zm8,12H23V12H33Z"></path><path id="Path_2127" data-name="Path 2127" d="M29,13H27v2H25v2h2v2h2V17h2V15H29Z"></path><path id="Path_2128" data-name="Path 2128" d="M41,6a4,4,0,0,0-4,4v8a4,4,0,0,0,8,0V10A4,4,0,0,0,41,6Zm2,12a2,2,0,0,1-4,0V15h4Zm0-5H39V10a2,2,0,0,1,4,0Z"></path></g></svg>