<svg xmlns="http://www.w3.org/2000/svg" id="Layer_1" height="512" viewBox="0 0 512 512" width="512"><g><g><path d="m407.274 496h-302.548c-17.673 0-32-14.327-32-32v-416c0-17.673 14.327-32 32-32h302.549c17.673 0 32 14.327 32 32v416c-.001 17.673-14.327 32-32.001 32z" fill="#a5c3dc"></path></g><g><path d="m391.274 496h-286.548c-17.673 0-32-14.327-32-32v-416c0-17.673 14.327-32 32-32h286.549c17.673 0 32 14.327 32 32v416c-.001 17.673-14.327 32-32.001 32z" fill="#d7e6f0"></path></g><g><path d="m311.274 169.941c-11.203 0-21.735-4.362-29.657-12.284-16.353-16.353-16.353-42.961 0-59.313l48-48c7.922-7.922 18.454-12.284 29.657-12.284s21.735 4.362 29.657 12.284c16.353 16.353 16.353 42.961 0 59.313l-48 48c-7.921 7.922-18.453 12.284-29.657 12.284z" fill="#a5c3dc"></path></g><g><path d="m311.274 321.941c-11.203 0-21.735-4.362-29.657-12.284-16.353-16.353-16.353-42.961 0-59.313l48-48c7.922-7.922 18.454-12.284 29.657-12.284s21.735 4.362 29.657 12.284c16.353 16.353 16.353 42.961 0 59.313l-48 48c-7.921 7.922-18.453 12.284-29.657 12.284z" fill="#a5c3dc"></path></g><g><path d="m311.274 473.941c-11.203 0-21.735-4.362-29.657-12.284-16.353-16.353-16.353-42.961 0-59.313l48-48c7.922-7.922 18.454-12.284 29.657-12.284s21.735 4.362 29.657 12.284c16.353 16.353 16.353 42.961 0 59.313l-48 48c-7.921 7.922-18.453 12.284-29.657 12.284z" fill="#a5c3dc"></path></g><g><path d="m136.726 169.941c-11.203 0-21.735-4.362-29.657-12.284-16.353-16.353-16.353-42.961 0-59.313l48-48c7.922-7.922 18.454-12.284 29.657-12.284s21.735 4.362 29.657 12.284c16.353 16.353 16.353 42.961 0 59.313l-48 48c-7.922 7.922-18.454 12.284-29.657 12.284z" fill="#a5c3dc"></path></g><g><path d="m136.726 321.941c-11.203 0-21.735-4.362-29.657-12.284-16.353-16.353-16.353-42.961 0-59.313l48-48c7.922-7.922 18.454-12.284 29.657-12.284s21.735 4.362 29.657 12.284c16.353 16.353 16.353 42.961 0 59.313l-48 48c-7.922 7.922-18.454 12.284-29.657 12.284z" fill="#a5c3dc"></path></g><g><path d="m136.726 473.941c-11.203 0-21.735-4.362-29.657-12.284-16.353-16.353-16.353-42.961 0-59.313l48-48c7.922-7.922 18.454-12.284 29.657-12.284s21.735 4.362 29.657 12.284c16.353 16.353 16.353 42.961 0 59.313l-48 48c-7.922 7.922-18.454 12.284-29.657 12.284z" fill="#a5c3dc"></path></g><g><g><path d="m383.275 104-48 48c-13.255 13.255-34.745 13.255-48 0-13.255-13.255-13.255-34.745 0-48l48-48c13.255-13.255 34.745-13.255 48 0 13.254 13.255 13.254 34.745 0 48z" fill="#5ad7ff"></path></g><g><path d="m379.274 108-20 20-24-24 20-20c6.627-6.627 17.373-6.627 24 0 6.628 6.627 6.628 17.373 0 24z" fill="#23aae6"></path></g><g><path d="m359.274 128-24 24c-13.255 13.255-34.745 13.255-48 0-13.255-13.255-13.255-34.745 0-48l24-24z" fill="#cd3232"></path></g><g><path d="m291.274 100 20-20 24 24-20 20c-6.627 6.627-17.373 6.627-24 0-6.627-6.627-6.627-17.373 0-24z" fill="#ff4646"></path></g><g><path d="m299.274 108 20-20 8 8-20 20c-2.209 2.209-5.791 2.209-8 0-2.209-2.209-2.209-5.791 0-8z" fill="#ff7878"></path></g><g><path d="m347.274 76-20 20-8-8 20-20c2.209-2.209 5.791-2.209 8 0 2.21 2.209 2.21 5.791 0 8z" fill="#a5ffff"></path></g></g><g><g><path d="m383.275 256-48 48c-13.255 13.255-34.745 13.255-48 0-13.255-13.255-13.255-34.745 0-48l48-48c13.255-13.255 34.745-13.255 48 0 13.254 13.255 13.254 34.745 0 48z" fill="#ff4646"></path></g><g><path d="m379.274 260-20 20-24-24 20-20c6.627-6.627 17.373-6.627 24 0 6.628 6.627 6.628 17.373 0 24z" fill="#cd3232"></path></g><g><path d="m359.274 280-24 24c-13.255 13.255-34.745 13.255-48 0-13.255-13.255-13.255-34.745 0-48l24-24z" fill="#23aae6"></path></g><g><path d="m291.274 252 20-20 24 24-20 20c-6.627 6.627-17.373 6.627-24 0-6.627-6.627-6.627-17.373 0-24z" fill="#5ad7ff"></path></g><g><path d="m299.274 260 20-20 8 8-20 20c-2.209 2.209-5.791 2.209-8 0-2.209-2.209-2.209-5.791 0-8z" fill="#a5ffff"></path></g><g><path d="m347.274 228-20 20-8-8 20-20c2.209-2.209 5.791-2.209 8 0 2.21 2.209 2.21 5.791 0 8z" fill="#ff7878"></path></g></g><g><g><path d="m383.275 408-48 48c-13.255 13.255-34.745 13.255-48 0-13.255-13.255-13.255-34.745 0-48l48-48c13.255-13.255 34.745-13.255 48 0 13.254 13.255 13.254 34.745 0 48z" fill="#5ad7ff"></path></g><g><path d="m379.274 412-20 20-24-24 20-20c6.627-6.627 17.373-6.627 24 0 6.628 6.627 6.628 17.373 0 24z" fill="#23aae6"></path></g><g><path d="m359.274 432-24 24c-13.255 13.255-34.745 13.255-48 0-13.255-13.255-13.255-34.745 0-48l24-24z" fill="#cd3232"></path></g><g><path d="m291.274 404 20-20 24 24-20 20c-6.627 6.627-17.373 6.627-24 0-6.627-6.627-6.627-17.373 0-24z" fill="#ff4646"></path></g><g><path d="m299.274 412 20-20 8 8-20 20c-2.209 2.209-5.791 2.209-8 0-2.209-2.209-2.209-5.791 0-8z" fill="#ff7878"></path></g><g><path d="m347.274 380-20 20-8-8 20-20c2.209-2.209 5.791-2.209 8 0 2.21 2.209 2.21 5.791 0 8z" fill="#a5ffff"></path></g></g><g><g><path d="m208.726 104-48 48c-13.255 13.255-34.745 13.255-48 0-13.255-13.255-13.255-34.745 0-48l48-48c13.255-13.255 34.745-13.255 48 0 13.254 13.255 13.254 34.745 0 48z" fill="#ff4646"></path></g><g><path d="m204.726 108-20 20-24-24 20-20c6.627-6.627 17.373-6.627 24 0 6.627 6.627 6.627 17.373 0 24z" fill="#cd3232"></path></g><g><path d="m184.726 128-24 24c-13.255 13.255-34.745 13.255-48 0-13.255-13.255-13.255-34.745 0-48l24-24z" fill="#23aae6"></path></g><g><path d="m116.726 100 20-20 24 24-20 20c-6.627 6.627-17.373 6.627-24 0-6.628-6.627-6.628-17.373 0-24z" fill="#5ad7ff"></path></g><g><path d="m124.726 108 20-20 8 8-20 20c-2.209 2.209-5.791 2.209-8 0-2.21-2.209-2.21-5.791 0-8z" fill="#a5ffff"></path></g><g><path d="m172.726 76-20 20-8-8 20-20c2.209-2.209 5.791-2.209 8 0 2.209 2.209 2.209 5.791 0 8z" fill="#ff7878"></path></g></g><g><g><path d="m208.726 256-48 48c-13.255 13.255-34.745 13.255-48 0-13.255-13.255-13.255-34.745 0-48l48-48c13.255-13.255 34.745-13.255 48 0 13.254 13.255 13.254 34.745 0 48z" fill="#5ad7ff"></path></g><g><path d="m204.726 260-20 20-24-24 20-20c6.627-6.627 17.373-6.627 24 0 6.627 6.627 6.627 17.373 0 24z" fill="#23aae6"></path></g><g><path d="m184.726 280-24 24c-13.255 13.255-34.745 13.255-48 0-13.255-13.255-13.255-34.745 0-48l24-24z" fill="#cd3232"></path></g><g><path d="m116.726 252 20-20 24 24-20 20c-6.627 6.627-17.373 6.627-24 0-6.628-6.627-6.628-17.373 0-24z" fill="#ff4646"></path></g><g><path d="m124.726 260 20-20 8 8-20 20c-2.209 2.209-5.791 2.209-8 0-2.21-2.209-2.21-5.791 0-8z" fill="#ff7878"></path></g><g><path d="m172.726 228-20 20-8-8 20-20c2.209-2.209 5.791-2.209 8 0 2.209 2.209 2.209 5.791 0 8z" fill="#a5ffff"></path></g></g><g><g><path d="m208.726 408-48 48c-13.255 13.255-34.745 13.255-48 0-13.255-13.255-13.255-34.745 0-48l48-48c13.255-13.255 34.745-13.255 48 0 13.254 13.255 13.254 34.745 0 48z" fill="#ff4646"></path></g><g><path d="m204.726 412-20 20-24-24 20-20c6.627-6.627 17.373-6.627 24 0 6.627 6.627 6.627 17.373 0 24z" fill="#cd3232"></path></g><g><path d="m184.726 432-24 24c-13.255 13.255-34.745 13.255-48 0-13.255-13.255-13.255-34.745 0-48l24-24z" fill="#23aae6"></path></g><g><path d="m116.726 404 20-20 24 24-20 20c-6.627 6.627-17.373 6.627-24 0-6.628-6.627-6.628-17.373 0-24z" fill="#5ad7ff"></path></g><g><path d="m124.726 412 20-20 8 8-20 20c-2.209 2.209-5.791 2.209-8 0-2.21-2.209-2.21-5.791 0-8z" fill="#a5ffff"></path></g><g><path d="m172.726 380-20 20-8-8 20-20c2.209-2.209 5.791-2.209 8 0 2.209 2.209 2.209 5.791 0 8z" fill="#ff7878"></path></g></g><g><path d="m248 480c-4.418 0-8-3.582-8-8v-432c0-4.418 3.582-8 8-8 4.418 0 8 3.582 8 8v432c0 4.418-3.582 8-8 8z" fill="#a5c3dc"></path></g></g></svg>