<svg xmlns="http://www.w3.org/2000/svg" height="512pt" viewBox="0 0 512.00061 512" width="512pt"><path d="m501.449219 52.835938c-12.902344-10.417969-31.019531-13.609376-46.6875-8.117188-14.949219 5.242188-25.140625 15.832031-30.25 28.289062-5.386719 13.160157-14.578125 24.363282-25.917969 32.921876l13.269531 18.949218c6.386719-4.46875 13.339844-7.980468 20.628907-10.480468 7.300781-2.507813 14.941406-4.007813 22.71875-4.449219 8.851562-.511719 17.660156-3.371094 25.460937-8.839844 16.03125-11.226563 23.445313-30.148437 20.777344-48.273437zm0 0" fill="#fd3c65"></path><path d="m380.570312 96.820312c-3.972656 0-7.972656 1.171876-11.460937 3.621094-7.265625 5.089844-10.097656 14.128906-7.660156 22.171875l17.652343 25.207031c3.890626 5.558594 10.089844 8.53125 16.398438 8.53125 3.960938 0 7.960938-1.171874 11.453125-3.609374 7.265625-5.09375 10.105469-14.136719 7.660156-22.191407l-17.644531-25.199219c-3.890625-5.5625-10.097656-8.53125-16.398438-8.53125zm0 0" fill="#4dbbeb"></path><path d="m361.582031 124.96875-145.25 103.511719c-8.539062 5.976562-13.003906 15.585937-12.789062 25.273437 9.46875 4.582032 21.070312 4.042969 30.296875-2.421875l144.25-102.789062zm0 0" fill="#c4f0ff"></path><path d="m336 415.972656v86h-209v-86zm0 0" fill="#4dbbeb"></path><path d="m159.5 301.699219c-7.964844 16.109375-16.5 35.433593-16.5 44.269531 0 11.714844 6.714844 21.851562 16.5 26.789062 9.785156-4.9375 16.5-15.074218 16.5-26.789062 0-8.835938-8.535156-28.160156-16.5-44.269531zm0 0" fill="#fd3c65"></path><path d="m196 468.972656c5.519531 0 10-4.480468 10-10 0-5.519531-4.480469-10-10-10s-10 4.480469-10 10c0 5.519532 4.480469 10 10 10zm0 0"></path><path d="m336 405.972656h-326c-5.523438 0-10 4.476563-10 10v86c0 5.519532 4.476562 10 10 10h326c5.523438 0 10-4.480468 10-10v-86c0-5.523437-4.476562-10-10-10zm-10 86h-306v-66h306zm0 0"></path><path d="m50 468.972656h106c5.523438 0 10-4.476562 10-10 0-5.523437-4.476562-10-10-10h-106c-5.523438 0-10 4.476563-10 10 0 5.523438 4.476562 10 10 10zm0 0"></path><path d="m490.273438 13.839844c-15.570313-13.230469-38.089844-17.410156-57.371094-10.648438-16.777344 5.878906-29.628906 17.933594-36.195313 33.941406-3.898437 9.523438-10.253906 18.183594-18.578125 25.402344-4.953125-3.425781-10.894531-5.335937-17.078125-5.335937-6.1875 0-12.140625 1.878906-17.195312 5.429687-10.695313 7.492188-15 20.75-11.671875 32.667969l-138.488282 98.691406c-15.238281 10.671875-20.757812 30.121094-14.523437 46.789063l-37.203125 26.050781c-1.949219.859375-3.609375 2.324219-4.6875 4.246094-5.226562 9.304687-31.28125 56.636719-31.28125 74.894531 0 22.058594 17.945312 40 40 40 22.058594 0 40-17.941406 40-40 0-15.039062-17.667969-49.78125-26.820312-66.773438l31.453124-22.027343c5.375 4.609375 11.898438 7.722656 19.054688 8.984375 2.34375.414062 4.691406.617187 7.023438.617187 8.140624 0 16.078124-2.492187 22.933593-7.296875l138.476563-98.675781c5.015625 3.558594 11.070312 5.554687 17.378906 5.554687 6.175781 0 12.113281-1.875 17.191406-5.421874 10.535156-7.378907 14.871094-20.351563 11.820313-32.128907 3.589843-1.953125 7.339843-3.609375 11.234375-4.941406 6.441406-2.21875 13.183594-3.535156 20.042968-3.925781 11.019532-.632813 21.609376-4.3125 30.617188-10.628906 15.34375-10.742188 24.648438-27.640626 25.527344-46.367188.882812-18.746094-7.011719-36.640625-21.660156-49.097656zm-344.273438 352.132812c-11.027344 0-20-8.972656-20-20 0-6.800781 9.292969-28.105468 20-48.882812 10.710938 20.769531 20 42.078125 20 48.882812 0 11.027344-8.972656 20-20 20zm82.101562-122.832031c-4.375 3.066406-9.683593 4.242187-14.941406 3.316406-5.257812-.929687-9.84375-3.851562-12.90625-8.230469-6.324218-9.035156-4.117187-21.527343 4.980469-27.902343l137.039063-97.660157 22.949218 32.769532zm173.121094-98.597656c-1.6875 1.183593-3.667968 1.808593-5.722656 1.808593-3.269531 0-6.335938-1.59375-8.207031-4.265624l-34.421875-49.152344c-3.160156-4.511719-2.058594-10.757813 2.464844-13.929688 1.683593-1.179687 3.660156-1.804687 5.714843-1.804687 3.269531 0 6.339844 1.59375 8.207031 4.261719v.003906l34.410157 49.152344h.003906c3.164063 4.515624 2.0625 10.765624-2.449219 13.925781zm90.730469-82.546875c-.585937 12.492187-6.789063 23.761718-17.023437 30.925781-5.972657 4.1875-12.988282 6.625-20.28125 7.042969-8.683594.492187-17.230469 2.167968-25.398438 4.976562-5.0625 1.734375-9.953125 3.898438-14.617188 6.457032l-23.542968-33.625c10.761718-9.289063 19.015625-20.570313 24.125-33.058594 4.363281-10.644532 12.996094-18.6875 24.308594-22.648438 12.703124-4.457031 27.542968-1.703125 37.800781 7.007813 9.886719 8.414062 15.21875 20.410156 14.628906 32.921875zm0 0"></path></svg>