<svg xmlns="http://www.w3.org/2000/svg" xmlns:xlink="http://www.w3.org/1999/xlink" id="Capa_1" x="0px" y="0px" viewBox="0 0 609.677 609.677" style="enable-background:new 0 0 609.677 609.677;" xml:space="preserve">
<g>
	<g>
		<g id="filled_outline_21_">
			<rect x="172.742" y="182.903" style="fill:#6B962A;" width="426.774" height="264.194"></rect>
			<rect x="172.742" y="142.258" style="fill:#628A27;" width="426.774" height="264.194"></rect>
			<rect x="172.742" y="101.613" style="fill:#6B962A;" width="426.774" height="264.194"></rect>
			<rect x="172.742" y="101.613" style="fill:#80A834;" width="426.774" height="223.548"></rect>
			<path style="fill:#88B337;" d="M518.226,325.161H172.742V101.613h386.129v182.903     C558.871,306.962,540.672,325.161,518.226,325.161z"></path>
			<path style="fill:#6B962A;" d="M522.585,284.516H243.871c0-16.837-13.647-30.484-30.484-30.484l0,0v-81.29l0,0     c16.837,0,30.484-13.647,30.484-30.484h315V248.23C558.871,268.268,542.623,284.516,522.585,284.516z"></path>
			<path style="fill:#99C93E;" d="M518.226,20.323v223.548c22.446,0,40.645,18.199,40.645,40.645V60.968     C558.871,38.521,540.672,20.323,518.226,20.323z"></path>
			<rect x="254.032" y="203.226" style="fill:#88B337;" width="20.323" height="20.323"></rect>
			<circle style="fill:#88B337;" cx="386.129" cy="213.387" r="71.129"></circle>
			<rect x="355.645" y="101.613" style="fill:#FDB62F;" width="60.968" height="345.484"></rect>
			<rect x="355.645" y="325.161" style="fill:#F09E26;" width="60.968" height="121.935"></rect>
			<path style="fill:#4398D1;" d="M10.161,548.71V365.806c0-22.446,18.199-40.645,40.645-40.645h325.161     c22.446,0,40.645,18.199,40.645,40.645V548.71c0,22.446-18.199,40.645-40.645,40.645H50.806     C28.36,589.355,10.161,571.156,10.161,548.71z"></path>
			<path style="fill:#3E8CC7;" d="M375.968,325.161h-40.645L71.129,589.355h304.839c22.446,0,40.645-18.199,40.645-40.645V365.806     C416.613,343.36,398.414,325.161,375.968,325.161z"></path>
			<rect x="50.806" y="365.806" style="fill:#FDB62F;" width="60.968" height="60.968"></rect>
			<rect x="50.806" y="457.258" style="fill:#5EB3D1;" width="40.645" height="20.323"></rect>
			<rect x="50.806" y="497.903" style="fill:#5EB3D1;" width="40.645" height="20.323"></rect>
			<rect x="233.71" y="497.903" style="fill:#5EB3D1;" width="40.645" height="20.323"></rect>
			<rect x="111.774" y="457.258" style="fill:#5EB3D1;" width="40.645" height="20.323"></rect>
			<rect x="172.742" y="457.258" style="fill:#5EB3D1;" width="40.645" height="20.323"></rect>
			<rect x="233.71" y="457.258" style="fill:#5EB3D1;" width="40.645" height="20.323"></rect>
			<rect x="294.677" y="457.258" style="fill:#5EB3D1;" width="40.645" height="20.323"></rect>
			<rect x="355.645" y="365.806" style="fill:#5EB3D1;" width="20.323" height="20.323"></rect>
			<rect x="315" y="365.806" style="fill:#5EB3D1;" width="20.323" height="20.323"></rect>
			<rect x="274.355" y="365.806" style="fill:#5EB3D1;" width="20.323" height="20.323"></rect>
			<rect x="233.71" y="365.806" style="fill:#5EB3D1;" width="20.323" height="20.323"></rect>
			<rect x="304.839" y="508.065" style="fill:#DADDDF;" width="71.129" height="40.645"></rect>
			<polygon style="fill:#FFA230;" points="50.806,411.532 50.806,426.774 111.774,426.774 111.774,365.806 96.532,365.806    "></polygon>
			<path d="M599.516,91.452h-30.484V60.968c-0.031-28.045-22.761-50.776-50.806-50.806c-5.609,0-10.161,4.552-10.161,10.161v71.129     H172.742c-5.609,0-10.161,4.552-10.161,10.161v193.065h20.323V111.774h162.581v20.323H243.871     c-5.609,0-10.161,4.552-10.161,10.161c0,11.228-9.094,20.323-20.323,20.323c-5.609,0-10.161,4.552-10.161,10.161v81.29     c0,5.609,4.552,10.161,10.161,10.161c11.228,0,20.323,9.094,20.323,20.323c0,5.609,4.552,10.161,10.161,10.161h121.935V111.774     h40.645v182.903h116.144c9.227,0.01,18.25-2.754,25.891-7.926c-1.169,15.872-14.348,28.177-30.26,28.248h-71.129v20.323h142.258     v20.323H447.097v20.323h142.258v20.323H447.097v20.323h142.258v20.323H447.097v20.323h152.419     c5.609,0,10.161-4.552,10.161-10.161V101.613C609.677,96.004,605.125,91.452,599.516,91.452z M345.484,168.068v90.639     c-25.027-22.294-27.242-60.663-4.949-85.69C342.09,171.269,343.736,169.622,345.484,168.068z M223.548,245.161v-63.549     c14.297-3.719,25.474-14.896,29.193-29.193h79.827c-33.674,29.356-37.17,80.447-7.814,114.121     c2.429,2.784,5.04,5.396,7.814,7.814h-79.827C249.023,260.058,237.845,248.88,223.548,245.161z M528.387,32.221     c12.173,4.319,20.302,15.831,20.323,28.746v182.903c-6.005-4.522-12.956-7.651-20.323-9.145V32.221z M508.065,111.774v20.323     h-81.29v-20.323H508.065z M426.774,258.706v-90.639c25.027,22.294,27.242,60.663,4.949,85.69     C430.168,255.506,428.522,257.152,426.774,258.706z M522.595,274.355h-82.906c33.675-29.356,37.17-80.447,7.814-114.121     c-2.429-2.784-5.04-5.396-7.814-7.814h68.375v91.452c0,5.609,4.552,10.161,10.161,10.161c9.298,0.03,18.067,4.329,23.788,11.655     C537.075,271.225,530.013,274.375,522.595,274.355z M569.032,284.516V111.774h20.323V315h-30.748     C565.334,306.261,568.992,295.541,569.032,284.516z"></path>
			<rect x="254.032" y="203.226" width="20.323" height="20.323"></rect>
			<path d="M50.806,599.516h325.161c28.045-0.03,50.776-22.761,50.806-50.806V365.806c-0.03-28.045-22.761-50.776-50.806-50.806     H50.806C22.761,315.03,0.03,337.761,0,365.806V548.71C0.03,576.755,22.761,599.486,50.806,599.516z M20.323,365.806     c0-16.837,13.647-30.484,30.484-30.484h325.161c16.837,0,30.484,13.647,30.484,30.484V548.71     c0,16.837-13.647,30.484-30.484,30.484H50.806c-16.837,0-30.484-13.647-30.484-30.484V365.806z"></path>
			<path d="M50.806,436.935h60.968c5.609,0,10.161-4.552,10.161-10.161v-60.968c0-5.609-4.552-10.161-10.161-10.161H50.806     c-5.609,0-10.161,4.552-10.161,10.161v60.968C40.645,432.383,45.197,436.935,50.806,436.935z M60.968,375.968h40.645v40.645     H60.968V375.968z"></path>
			<rect x="50.806" y="457.258" width="40.645" height="20.323"></rect>
			<rect x="50.806" y="497.903" width="40.645" height="20.323"></rect>
			<rect x="233.71" y="497.903" width="40.645" height="20.323"></rect>
			<rect x="111.774" y="457.258" width="40.645" height="20.323"></rect>
			<rect x="172.742" y="457.258" width="40.645" height="20.323"></rect>
			<rect x="233.71" y="457.258" width="40.645" height="20.323"></rect>
			<rect x="294.677" y="457.258" width="40.645" height="20.323"></rect>
			<rect x="355.645" y="365.806" width="20.323" height="20.323"></rect>
			<rect x="315" y="365.806" width="20.323" height="20.323"></rect>
			<rect x="274.355" y="365.806" width="20.323" height="20.323"></rect>
			<rect x="233.71" y="365.806" width="20.323" height="20.323"></rect>
			<path d="M304.839,497.903c-5.609,0-10.161,4.552-10.161,10.161v40.645c0,5.609,4.552,10.161,10.161,10.161h71.129     c5.609,0,10.161-4.552,10.161-10.161v-40.645c0-5.609-4.552-10.161-10.161-10.161H304.839z M365.806,538.548H315v-20.323h50.806     V538.548z"></path>
		</g>
	</g>
</g>
<g>
</g>
<g>
</g>
<g>
</g>
<g>
</g>
<g>
</g>
<g>
</g>
<g>
</g>
<g>
</g>
<g>
</g>
<g>
</g>
<g>
</g>
<g>
</g>
<g>
</g>
<g>
</g>
<g>
</g>
</svg>