<svg xmlns="http://www.w3.org/2000/svg" width="512" height="512" enable-background="new 0 0 512 512" viewBox="0 0 512 512"><path fill="#606060" d="M91.021,74.175v221.36h169.4v-14.87c5.66-5.11,10.85-12.08,12.6-19.95v-144.23
			c0-2.46-0.14-4.88-0.399-7.27c-3.371-30.5-27.69-55.04-58.88-58.09l-93.92-9.2c-3.28,0-6.5,0.8-9.6,2.149
			c-5.96,2.601-10.78,6.94-14.11,12.261C92.831,61.575,91.021,67.765,91.021,74.175z"/><path fill="#565656" d="M91.021 74.175v120.22l77.33-9.47 36.89-53.89V108.52c0-12.968-8.651-24.342-21.147-27.805l-74.371-20.608c-9.265-2.567-18.646 4.263-18.701 13.876C91.021 74.047 91.021 74.11 91.021 74.175zM176.351 298.024l14.62-2.489 69.45-11.83v-3.04c5.66-5.11 10.85-12.08 12.6-19.95v-144.23c0-2.46-.14-4.88-.399-7.27-1.371 19.47-6.04 59.51-41.6 59.51-46.01 0-50.27 17.45-50.27 32.16 0 13.18-3.53 80.78-4.26 94.65C176.401 297.135 176.351 298.024 176.351 298.024z"/><path fill="#FAC1AC" d="M41.513,320.357c1.341,2.072,1.855,4.613,0.988,6.924c-1.027,2.739-1.403,5.596,0.071,7.941
			c0.363,0.578,0.86,1.061,1.395,1.486l11.134,8.866c4.45,3.55,6.78,9.119,6.18,14.77l-0.63,5.57
			c-0.44,14.68,11.28,26.85,25.96,26.979l45.38,0.3c15.69,0.101,28.36,12.86,28.36,28.551h100.07v-141.08
			c5.66-5.11,10.85-12.08,12.6-19.95c0.41-1.811,0.63-3.67,0.63-5.57v-17.38c0-2.24-0.21-4.439-0.63-6.56
			c-3.06-15.87-17.03-27.851-33.79-27.851h-8.3c-10.61,0-19.79,7.391-22.06,17.761l-9.14,41.909
			c-1.02,4.698-5.375,7.947-10.262,7.511c-4.996-0.445-8.718-4.845-8.718-9.86v-59.79c0-10.57,2.7-20.97,7.84-30.21l11.94-21.46
			c3.12-5.62,4.71-11.89,4.71-18.18c0-4.23-0.71-8.471-2.16-12.54c-3.98-11.17-13.02-19.801-24.37-23.24l-14.5-4.41l-57.26-17.39
			c-5.51-1.67-11.33-0.73-15.93,2.31c-1.97,1.29-3.72,2.97-5.13,5l-12.11,17.4c-8.81,12.66-13.53,27.71-13.53,43.13v42.72
			c0,0,0.19,9.49-2.85,13.15l-37.54,42.25c-6.51,7.319-5.38,18.81,2.66,24.41c3.04,2.13,7.07,4.029,12.38,5.39
			c17.031,4.369,15.32,28.665,8.951,38.107c-1.753,2.599-2.864,5.577-3.022,8.709c-0.006,0.12-0.012,0.229-0.018,0.332
			c-0.061,1.11,0.061,2.226,0.403,3.283C41.309,319.939,41.411,320.2,41.513,320.357z"/><path fill="#FB9D6E" d="M228.021,296.675c0.193,2.92,0.387,5.84,0.58,8.76c0,6.24,3.44,11.98,8.94,14.94
			c2.75,1.479,4.98,3.649,6.53,6.239c1.55,2.591,2.41,5.58,2.41,8.7v86.431h13.94v-141.08c-3.469,3.818-10.198,10.105-20.528,13.613
			C235.443,295.789,231.362,296.432,228.021,296.675z"/><polygon fill="#A6E0F6" points="126.021 458.745 126.021 470.075 265.351 470.075 265.351 421.075 155.131 421.075 127.171 457.255"/><polygon fill="#3196CA" points="144.024 458.745 144.024 470.075 265.354 470.075 265.354 421.075 173.134 421.075"/><path fill="#2E426A" d="M240.604,445.925h24.75v-6.5h-24.75c-1.795,0-3.25,1.455-3.25,3.25l0,0
			C237.354,444.47,238.81,445.925,240.604,445.925z"/><polygon fill="#FFF" points="126.021 458.745 126.021 459.595 265.351 459.595 265.351 457.255 127.171 457.255"/><path fill="#FFE8E1" d="M72.472,201.724c0,7.152,5.798,12.951,12.951,12.951c7.152,0,12.951-5.799,12.951-12.951"/><ellipse cx="85.423" cy="199.685" fill="#565656" rx="7.65" ry="10.009"/><path fill="#565656" d="M116.466,193.175c-1.147,0-2.271-0.563-2.94-1.597c-3.26-5.029-9.186-12.037-18.907-16.866
			c-9.663-4.8-18.778-5.306-24.722-4.887c-1.936,0.138-3.602-1.316-3.738-3.244c-0.136-1.929,1.316-3.603,3.245-3.738
			c6.81-0.481,17.256,0.1,28.33,5.6c11.14,5.534,17.931,13.565,21.667,19.329c1.051,1.622,0.589,3.789-1.034,4.841
			C117.778,192.993,117.118,193.175,116.466,193.175z"/><path fill="#FB9D6E" d="M228.021,279.05L228.021,279.05c2.761,0,5-2.238,5-5v-1.792c0-5.49,2.801-10.637,7.484-13.505
			c7.755-4.749,12.389-13.021,12.389-22.11v-7.941c0-2.762-2.239-5-5-5l0,0c-2.761,0-5,2.238-5,5v7.941
			c0,5.49-2.801,10.637-7.484,13.505c-7.755,4.749-12.388,13.022-12.388,22.11v1.792C223.021,276.812,225.26,279.05,228.021,279.05z
			"/><g><path fill="#FB9D6E" d="M337.002,165.421c0,48.5-38.17,88.08-86.099,90.34c-1.44,0.08-2.89,0.11-4.34,0.11
			c-49.95,0-90.44-40.5-90.44-90.45s40.49-90.439,90.44-90.439c1.45,0,2.9,0.029,4.34,0.109
			C298.832,77.352,337.002,116.921,337.002,165.421z"/><path fill="#EB5D29" d="M337.002,165.421c0,48.5-38.17,88.08-86.099,90.34c-47.93-2.26-86.11-41.84-86.11-90.34
			s38.18-88.08,86.11-90.33C298.832,77.352,337.002,116.921,337.002,165.421z"/><path fill="#DB3A09" d="M324.777,165.429c0,35.699-26.889,65.109-61.519,69.08c-2.631,0.3-5.311,0.46-8.021,0.46
			c-38.41,0-69.54-31.131-69.54-69.54c0-14.181,4.24-27.37,11.53-38.37l10.91-12.8c12.39-11.41,28.93-18.381,47.1-18.381
			c2.71,0,5.38,0.15,8,0.46C297.878,100.299,324.777,129.729,324.777,165.429z"/><path fill="#FFF" d="M316.104,165.429c0,35.699-26.891,65.109-61.52,69.08c-2.63,0.3-5.31,0.46-8.02,0.46
			c-38.41,0-69.54-31.131-69.54-69.54c0-14.181,4.24-27.37,11.53-38.37l10.91-12.8c12.39-11.41,28.93-18.381,47.1-18.381
			c2.71,0,5.38,0.15,8,0.46C289.203,100.299,316.104,129.729,316.104,165.429z"/><path fill="#FCE48C" d="M316.104,165.429c0,35.699-26.891,65.109-61.52,69.08c-34.64-3.971-61.53-33.381-61.53-69.08
			c0-14.181,4.24-27.37,11.53-38.37l10.91-12.8c10.54-9.7,24.08-16.2,39.07-17.921C289.203,100.299,316.104,129.729,316.104,165.429
			z"/><path fill="#DB3A09" d="M278.236,152.7h-18.947v-18.947c0-7.028-5.697-12.726-12.725-12.726l0,0
			c-7.028,0-12.726,5.697-12.726,12.726V152.7h-18.947c-7.028,0-12.726,5.697-12.726,12.726l0,0c0,7.028,5.698,12.726,12.726,12.726
			h18.947v18.946c0,7.028,5.697,12.726,12.726,12.726l0,0c7.028,0,12.725-5.697,12.725-12.726v-18.946h18.947
			c7.027,0,12.726-5.697,12.726-12.726l0,0C290.962,158.397,285.264,152.7,278.236,152.7z"/></g><g><rect width="205.333" height="205.334" x="291.024" y="264.741" fill="#FFECB6"/><rect width="66.947" height="23" x="306.461" y="286.088" fill="#EB5D29"/><rect width="53.043" height="23" x="320.365" y="286.088" fill="#DB3A09"/><path fill="#565656" d="M377.147 441.119h51.343c2.761 0 5-2.238 5-5l0 0c0-2.762-2.239-5-5-5h-51.343c-2.762 0-5 2.238-5 5l0 0C372.147 438.881 374.386 441.119 377.147 441.119zM377.147 418.395h100.159c2.762 0 5-2.238 5-5l0 0c0-2.762-2.238-5-5-5H377.147c-2.762 0-5 2.238-5 5l0 0C372.147 416.156 374.386 418.395 377.147 418.395zM377.147 350.516h100.159c2.762 0 5-2.238 5-5l0 0c0-2.762-2.238-5-5-5H377.147c-2.762 0-5 2.238-5 5l0 0C372.147 348.277 374.386 350.516 377.147 350.516zM468.57 373.24h8.736c2.762 0 5-2.238 5-5l0 0c0-2.762-2.238-5-5-5h-8.736c-2.762 0-5 2.238-5 5l0 0C463.57 371.002 465.809 373.24 468.57 373.24zM445.477 363.24h-68.329c-2.762 0-5 2.238-5 5l0 0c0 2.762 2.238 5 5 5h68.329c2.762 0 5-2.238 5-5l0 0C450.477 365.479 448.238 363.24 445.477 363.24zM423.647 302.944h53.659c2.762 0 5-2.238 5-5l0 0c0-2.762-2.238-5-5-5h-53.659c-2.762 0-5 2.238-5 5l0 0C418.647 300.706 420.886 302.944 423.647 302.944zM393.485 302.944h6.162c2.761 0 5-2.238 5-5l0 0c0-2.762-2.239-5-5-5h-6.162c-2.762 0-5 2.238-5 5l0 0C388.485 300.706 390.724 302.944 393.485 302.944z"/><rect width="44.424" height="44.423" x="306.461" y="341.592" fill="#FDC323"/><polygon fill="#FCE48C" points="306.461 386.015 306.461 341.592 350.885 341.592"/><path fill="#DB5E3B" d="M352.668,336.643L327.85,361.46l-4.021-4.021c-1.878-1.877-4.921-1.877-6.798,0l0,0
			c-1.877,1.877-1.877,4.92,0,6.798l10.818,10.818l31.616-31.616c1.877-1.877,1.877-4.92,0-6.797l0,0
			C357.589,334.766,354.545,334.765,352.668,336.643z"/><rect width="44.424" height="44.424" x="306.461" y="404.397" fill="#FDC323"/><polygon fill="#FCE48C" points="306.461 448.821 306.461 404.397 350.885 404.397"/><path fill="#DB5E3B" d="M352.668,399.448l-24.818,24.818l-4.021-4.021c-1.878-1.877-4.921-1.877-6.798,0.001l0,0
			c-1.877,1.877-1.877,4.92,0,6.797l10.818,10.819l31.616-31.617c1.877-1.877,1.877-4.92,0-6.797l0,0
			C357.589,397.571,354.545,397.571,352.668,399.448z"/><path fill="#3196CA" d="M434.969,249.721l-42.951-85.971c-0.847-1.694-2.578-2.766-4.473-2.766h-31.547c-2.762,0-5,2.239-5,5
			v0.001c0,2.761,2.238,4.999,5,4.999h25.364c1.895,0,3.626,1.071,4.473,2.766l40.188,80.44c1.234,2.47,4.236,3.472,6.707,2.238l0,0
			C435.2,255.194,436.203,252.191,434.969,249.721z"/></g></svg>